<?xml version="1.0" encoding="UTF-8"?> <!-- Generator: Adobe Illustrator 21.0.0, SVG Export Plug-In . SVG Version: 6.00 Build 0) --> <svg xmlns:cc="http://creativecommons.org/ns#" xmlns:dc="http://purl.org/dc/elements/1.1/" xmlns:inkscape="http://www.inkscape.org/namespaces/inkscape" xmlns:rdf="http://www.w3.org/1999/02/22-rdf-syntax-ns#" xmlns:sodipodi="http://sodipodi.sourceforge.net/DTD/sodipodi-0.dtd" xmlns:svg="http://www.w3.org/2000/svg" xmlns="http://www.w3.org/2000/svg" xmlns:xlink="http://www.w3.org/1999/xlink" id="logo" inkscape:export-filename="C:\Users\Daijin\Desktop\Deloitte.png" inkscape:export-xdpi="90" inkscape:export-ydpi="90" inkscape:version="0.91 r13725" sodipodi:docname="Deloitte_logo_2016.svg" x="0px" y="0px" viewBox="0 0 400 300" xml:space="preserve"> <path id="logo_2_" inkscape:connector-curvature="0" fill="#86BC24" d="M375.2233,176.25821 c0-5.73598,4.6568-10.38966,10.38983-10.38966c5.73596,0,10.38687,4.65369,10.38687,10.38966s-4.65091,10.38658-10.38687,10.38658 C379.8801,186.64479,375.2233,181.99403,375.2233,176.25821"></path> <path id="logo_1_" fill="#0F0B0B" d="M43.87839,148.74326c0-6.58075-1.27179-11.46284-3.81479-14.64349 c-2.54652-3.17758-6.40358-4.76497-11.58938-4.76497h-5.51638v40.24182h4.22051c5.76005,0,9.98056-1.70761,12.66858-5.13474 c2.6845-3.42108,4.03145-8.65504,4.03145-15.69878 M63.55122,148.05774c0,11.98895-3.22293,21.2272-9.66819,27.71181 c-6.44527,6.48753-15.50634,9.73131-27.18555,9.73131H4.00311V113.6601h24.27852c11.26175,0,19.95584,2.94917,26.08228,8.84441 C60.488,128.40283,63.55122,136.91652,63.55122,148.05774 M126.41443,185.49997h18.05873v-72.14138h-18.05873V185.49997z M169.84203,158.59097c0,4.59953,0.60126,8.10796,1.80083,10.51898c1.2025,2.41397,3.21648,3.61957,6.04834,3.61957 c2.80194,0,4.78302-1.20544,5.93738-3.61957c1.15436-2.41103,1.72861-5.91931,1.72861-10.51898 c0-4.57559-0.58305-8.02678-1.75269-10.35664c-1.17256-2.33586-3.17184-3.50534-6.00665-3.50534 c-2.77199,0-4.75307,1.16345-5.95557,3.4782c-1.19957,2.31781-1.80083,5.77809-1.80083,10.38364 M203.73708,158.59082 c0,8.76324-2.29698,15.59955-6.90266,20.49971c-4.60275,4.90323-11.04509,7.35638-19.327,7.35638 c-7.94252,0-14.26508-2.50717-18.95767-7.52168c-4.69846-5.0145-7.04651-11.79062-7.04651-20.33441 c0-8.73622,2.29991-15.52438,6.90559-20.3645c4.6051-4.84012,11.0627-7.2601,19.37808-7.2601 c5.13765,0,9.68346,1.12134,13.62154,3.36107c3.94102,2.23972,6.9837,5.44737,9.12097,9.62605 C202.66962,148.12601,203.73708,153.00824,203.73708,158.59082 M210.90924,185.50027h18.06166v-27.6095V131.9136h-18.06166 V185.50027z M210.90866,125.43179h18.06166v-12.07614h-18.06166V125.43179z M265.56277,171.83234 c2.43848,0,5.34198-0.61931,8.72992-1.84883v13.48312c-2.43497,1.07025-4.75015,1.83679-6.95023,2.29082 c-2.20068,0.45988-4.78302,0.68845-7.73819,0.68845c-6.06363,0-10.43445-1.52412-13.11954-4.5665 c-2.67216-3.04237-4.01324-7.71413-4.01324-14.01817v-22.09003h-6.32491V131.9183h6.32491v-13.68452l18.19965-3.16553v16.85005 h11.52304v13.85289h-11.52304v20.85742c0,3.46924,1.63229,5.20386,4.89105,5.20386 M307.36395,171.83234 c2.43848,0,5.34198-0.61931,8.72989-1.84883v13.48312c-2.43201,1.07025-4.75012,1.83679-6.95023,2.29082 c-2.20361,0.45988-4.77655,0.68845-7.73819,0.68845c-6.0636,0-10.43445-1.52412-13.11307-4.5665s-4.0191-7.71413-4.0191-14.01817 v-22.09003h-6.32843V131.9183h6.32843v-13.89194l18.19669-2.95811v16.85005h11.52893v13.85289h-11.52893v20.85742 c0,3.46924,1.63232,5.20386,4.89401,5.20386 M338.88333,152.06277c0.24661-2.93405,1.08566-5.08365,2.51599-6.45746 c1.43735-1.37086,3.21118-2.05623,5.33316-2.05623c2.31461,0,4.15475,0.76962,5.51932,2.32089 c1.37396,1.54218,2.08914,3.60753,2.14667,6.19293h-15.51572L338.88333,152.06277z M364.3526,137.28394 c-4.29272-4.20877-10.38333-6.3161-18.26303-6.3161c-8.2825,0-14.65555,2.41998-19.12326,7.2601 c-4.46417,4.84012-6.69775,11.78462-6.69775,20.83336c0,8.76323,2.41443,15.5213,7.23032,20.26527 c4.81882,4.74382,11.58585,7.11888,20.30109,7.11888c4.18469,0,7.78635-0.28566,10.80435-0.85373 c3.0004-0.56221,5.90448-1.57829,8.7211-3.04532l-2.77493-12.07614c-2.04742,0.83568-3.99503,1.47906-5.83521,1.903 c-2.65747,0.61623-5.57333,0.92595-8.74869,0.92595c-3.48129,0-6.22861-0.8508-8.24316-2.55238 c-2.01395-1.70453-3.08728-4.05553-3.2106-7.04976h32.28152v-8.22818c0-7.91551-2.14664-13.97913-6.44232-18.18495 M87.51971,152.06277c0.2466-2.93405,1.08566-5.08365,2.51598-6.45746c1.43385-1.37086,3.21059-2.05623,5.33612-2.05623 c2.30872,0,4.14888,0.76962,5.51637,2.32089c1.37396,1.54218,2.08619,3.60753,2.1496,6.19293H87.51971V152.06277z M112.99193,137.28394c-4.29567-4.20877-10.38335-6.3161-18.26599-6.3161c-8.28542,0-14.65553,2.41998-19.12031,7.2601 c-4.46419,4.84012-6.70068,11.78462-6.70068,20.83336c0,8.76323,2.41089,15.5213,7.23324,20.26527 c4.8159,4.74382,11.58292,7.11888,20.29816,7.11888c4.18469,0,7.78634-0.28566,10.80435-0.85373 c3.00039-0.56221,5.90449-1.57829,8.72404-3.04532l-2.77786-12.07614c-2.04743,0.83568-3.99563,1.47906-5.83227,1.903 c-2.66336,0.61623-5.57627,0.92595-8.75163,0.92595c-3.47835,0-6.22861-0.8508-8.24316-2.55238 c-2.01749-1.70453-3.08729-4.05553-3.21059-7.04976h32.28152v-8.22818c0-7.91551-2.14666-13.97913-6.4394-18.18495"></path> </svg> 