<?xml version="1.0" encoding="UTF-8"?> <!-- Generator: Adobe Illustrator 23.0.3, SVG Export Plug-In . SVG Version: 6.00 Build 0) --> <svg xmlns:cc="http://creativecommons.org/ns#" xmlns:dc="http://purl.org/dc/elements/1.1/" xmlns:inkscape="http://www.inkscape.org/namespaces/inkscape" xmlns:rdf="http://www.w3.org/1999/02/22-rdf-syntax-ns#" xmlns:sodipodi="http://sodipodi.sourceforge.net/DTD/sodipodi-0.dtd" xmlns:svg="http://www.w3.org/2000/svg" xmlns="http://www.w3.org/2000/svg" xmlns:xlink="http://www.w3.org/1999/xlink" id="logosvg" inkscape:version="0.92.0 r15299" sodipodi:docname="dupont.svg" x="0px" y="0px" viewBox="0 0 400 300" style="enable-background:new 0 0 400 300;" xml:space="preserve"> <style type="text/css"> .st0{fill:#E4001C;} </style> <path id="logosvg_1_" class="st0" d="M134.0496,95.3745c2.9302-0.3343,12.0324-1.1623,14.8064-1.3308v90.0562 c0,15.1054-8.1443,22.3396-21.438,20.6967c-14.529-1.7901-20.6664-7.0867-20.6664-20.6967V98.8592 c3.2377-0.4982,10.7971-1.626,14.1864-2.024v84.2784c0,5.3096,1.374,7.6367,6.48,8.3002c5.1969,0.6804,6.6316-2.1585,6.6316-6.6403 V95.3745z M96.2645,124.2704v51.415c0,11.4516-6.1115,18.5904-16.9519,18.5904c-4.7028,0-12.9729-2.0589-23.7656-5.5784v-77.4387 c12.2751-4.0832,19.0628-5.5784,23.7656-5.5784C90.1531,105.6803,96.2645,112.819,96.2645,124.2704z M82.8449,126.2601 c0-4.4818-2.5008-5.9728-5.4917-5.9728c-2.3276,0-5.9207,0.9107-8.8508,1.7425v55.8664c2.9302,0.8623,6.5232,1.7726,8.8508,1.7726 c2.9909,0,5.4917-1.4909,5.4917-5.9729V126.2601z M5.7438,149.8118c0,10.706,9.6572,20.7317,26.4962,29.3265v-58.4192 C15.4008,129.2494,5.7438,139.2056,5.7438,149.8118z M296.9965,154.9234L280.569,97.2497 c-4.473-0.6325-9.8695-1.2786-14.0348-1.6947v108.8587c2.9302-0.2948,10.3983-1.2089,14.2515-1.7423l-1.171-64.1452l17.381,61.6396 c3.7016-0.629,9.0981-1.6427,12.6479-2.3708v-95.6517c-3.7018-0.7804-10.4286-2.007-13.6663-2.5357L296.9965,154.9234z M316.9694,118.8752c3.6669,0.7064,7.2776,1.4909,10.7971,2.3232v72.3803c3.2377-0.8147,9.2538-2.5054,13.2632-3.784v-65.1809 c3.849,1.075,7.4768,2.1498,10.7971,3.1728v-13.9568c-10.4719-3.9357-21.7156-7.1387-34.8573-10.0905V118.8752z M367.7426,120.7006 v0.0002v58.4539c16.8435-8.6125,26.5136-18.6207,26.5136-29.344C394.2563,139.2043,384.5862,129.248,367.7426,120.7006z M202.9914,113.5174v33.427c0,14.4078-6.4453,21.8918-21.9624,21.941l-5.7994,0.0123v38.5242 c-4.1653-0.1167-11.8763-0.5504-14.8064-0.7151V93.2667c8.6387-0.5506,18.0313-0.897,20.6059-0.897v0.0044 C195.7443,92.374,202.9914,99.4132,202.9914,113.5174z M188.0292,115.84c0-4.976-1.3566-7.633-7.8625-7.633 c-1.3915,0-2.6224,0.0343-4.9371,0.1647v44.7615l5.1971-0.0125c6.0161-0.0171,7.6024-2.4923,7.6024-7.3727L188.0292,115.84z M255.8947,114.1956v70.8333c0,16.7654-7.4032,22.5731-21.594,23.2366c-14.4987,0.6804-21.9019-5.808-21.9019-21.5767v-74.2053 c0-14.9364,8.1747-21.4594,21.9019-20.7443C249.198,92.5193,255.8947,98.2104,255.8947,114.1956z M240.9323,114.642 c0-4.4818-1.3869-6.8875-6.6316-7.0522c-5.3965-0.1688-6.8615,2.4058-6.8615,7.0522v70.7204c0,4.6465,1.4651,7.1393,6.8615,6.9697 c5.2447-0.1647,6.6316-2.4879,6.6316-6.9697V114.642z"></path> </svg> 