<?xml version="1.0" encoding="UTF-8"?> <!-- Generator: Adobe Illustrator 22.1.0, SVG Export Plug-In . SVG Version: 6.00 Build 0) --> <svg xmlns="http://www.w3.org/2000/svg" xmlns:xlink="http://www.w3.org/1999/xlink" id="Слой_1" x="0px" y="0px" viewBox="0 0 400 300" style="enable-background:new 0 0 400 300;" xml:space="preserve"> <style type="text/css"> .st0{fill:#F96302;} </style> <g> <path class="st0" d="M323,81.4c-3.5,3.5-7,6.9-10.4,10.4c-1.5-1.3-2.8-2.8-4.3-4.1c0.4-0.6,0.7-1.2,1.2-1.8 c1.5-2.5,2.6-5.3,2.9-8.1c0.5-4.2-0.3-8.5-2.1-12.3c-0.6-1.3-1.3-2.8-0.9-4.3c0.3-0.7,1-1.3,1.7-1.6c1.1-0.5,2.3-0.1,3.1,0.7 c2.9,2.9,5.8,5.8,8.7,8.7c0,0,0,0,0,0c0-14,0-27.9,0-41.9c0,0,0,0,0,0c-8.7,0-17.4,0-26.2,0c-5.6,0-11.2,0-16.8,0c3,3,6,6,9,9 c0.6,0.6,1,1.6,0.6,2.4c-0.5,1.2-1.5,2.4-2.8,2.5c-1.4-0.1-2.5-1-3.7-1.5c-3.2-1.4-6.7-2.3-10.2-1.9c-3.9,0.3-7.4,2-10.6,4.2 c-1.4-1.4-2.8-2.8-4.2-4.2c3.5-3.5,7-6.9,10.4-10.4c-4.9,0-9.8,0-14.7,0h-22.5H77c0,63.9,0,127.8,0,191.7 c5.7-5.8,11.5-11.4,17.2-17.2c0.8-0.9,1.9-1.5,3.1-1.6c1.8-0.1,3.4,1.8,2.9,3.5c-0.4,1.4-1.4,2.6-1.4,4.1c0.3,1.3,1.4,2.1,2.2,3 c13.1,13.1,26.2,26.3,39.4,39.4c0.6,0.6,1.4,1.3,2.3,1.4c1.5,0,2.7-1.1,4.1-1.4c1.7-0.4,3.5,1.4,3.3,3.1c-0.2,1.5-1.2,2.6-2.2,3.6 L131.4,273h69.9c0.4-0.7,0.8-1.7,0.2-2.4c-1.4-1.7-3.1-3.1-4.6-4.7c-6.1-6.1-12.1-12.1-18.2-18.2c-0.5-0.5-1.1-1-1.8-1 c-0.8,0.2-1.5,0.7-2.4,0.8c-0.9-0.1-1.8-1-1.7-1.9c0.3-1,1.1-1.7,1.8-2.4c3.3-3.2,6.5-6.6,9.8-9.8c10.2,10.2,20.4,20.4,30.6,30.6 c-3,3-6,6-9,9H323h0V156.1c0,0,0,0,0,0c-3.2,3.2-6.3,6.3-9.5,9.5c-0.5,0.6-1.3,1.1-2.1,1c-1,0-1.7-1.1-1.3-2 c0.2-0.8,0.8-1.5,0.7-2.3c-0.3-0.8-1-1.3-1.5-1.9c-6.7-6.7-13.5-13.4-20.2-20.1c-1.9-1.9-3.8-3.7-5.6-5.7c3.4-3.3,6.7-6.6,10-9.9 c8.4,8.3,16.7,16.7,25.1,25c0.8,0.7,1.5,1.6,2.4,2.2c0.7,0.3,1.4-0.1,2.1-0.4c0,0,0,0,0,0C323,128,323,104.7,323,81.4 C323,81.4,323,81.4,323,81.4z M280.4,46.4c0.5-1,1.5-1.8,2.7-1.7c1.3,0.1,2.2,1.2,3.1,2c5.2,5.2,10.3,10.4,15.5,15.5 c1,1,2.1,1.9,2.4,3.3c0.1,1.5-1.2,2.8-2.6,2.9c-1.2,0-2.3-0.6-3.3-1.2c-2.2-1.3-4.7-2.3-7.3-2.2c-1.3,0-2.6,0.5-3.8,1.1 c-1.4-1.5-3-2.9-4.4-4.5c0.4-1.2,1-2.3,1-3.5c0.2-2.8-1-5.5-2.4-7.9C280.4,49.2,279.9,47.8,280.4,46.4L280.4,46.4z M194.2,74.9 c-0.3-0.8-0.9-1.8-0.4-2.6c0.5-0.9,1.8-1,2.4-0.2c2.6,2.6,5.3,5.3,7.9,7.9c-2.9,3-5.9,5.9-8.9,8.9c-0.7-0.8-1.6-1.4-2.1-2.3 c0.9-1.4,1.8-2.9,2-4.6C195.6,79.5,195.2,77.1,194.2,74.9z M189.5,73.1c0.5,0.5,1.2,1,1.2,1.8c0.1,0.8-0.7,1.6-1.5,1.5 c-1.1,0-1.9-0.9-2.9-1.2c-1.4-0.7-3.2-0.7-4.6,0.1c-0.7-0.7-1.5-1.5-2.3-2.2c0.3-1.1,0.6-2.3,0.4-3.5c-0.2-1.3-1.1-2.4-1.5-3.6 c-0.3-0.9,0.3-1.9,1.2-2c0.7-0.1,1.2,0.4,1.7,0.9C183.9,67.5,186.7,70.3,189.5,73.1z M175.1,51.5c2.7,2.6,5.2,5.2,7.9,7.8 c0.9,0.8,0.1,2.2-0.9,2.6c-0.8,0.1-1.5-0.4-2.2-0.7c-2.8-1.4-6.3-1.5-9,0c-0.7,0.3-1.3,0.9-2.1,1.1c-0.8-0.6-1.4-1.4-2.1-2.1 C169.3,57.2,172.3,54.4,175.1,51.5z M154,73.4c0.1-0.6,0.4-1.2,0.9-1.6c3.3-3.3,6.7-6.6,9.9-10c3.8,3.7,7.5,7.5,11.2,11.2 c5.9,5.8,11.7,11.7,17.6,17.6c-3.4,3.4-6.7,6.8-10.1,10.1c-0.7,0.8-2.1,1.1-2.8,0.2c-0.8-0.9,0.1-2,0.3-2.9 c0.3-0.7-0.2-1.3-0.7-1.7c-6.8-6.7-13.5-13.5-20.3-20.3c-0.6-0.6-1.1-1.3-1.9-1.7c-1-0.2-1.8,0.7-2.8,0.7 C154.6,74.9,153.9,74.2,154,73.4z M140.2,86.4c3.4-3.4,6.8-6.8,10.2-10.2c0.5-0.5,1.1-1.1,1.8-1.3c0.7-0.2,1.7,0.3,1.8,1.1 c0.2,0.9-0.5,1.7-0.7,2.5c-0.1,0.7,0.5,1.2,0.9,1.7c6.9,6.9,13.8,13.8,20.7,20.7c0.5,0.4,1,1,1.6,1.1c0.8-0.1,1.5-0.6,2.3-0.8 c1-0.1,1.9,1,1.6,1.9c-0.1,0.7-0.7,1.2-1.1,1.7c-3.4,3.4-6.7,6.7-10.1,10c-0.6,0.6-1.4,1.2-2.2,1c-0.5-0.2-0.9-0.6-1.1-1.1 c-0.3-1.1,1-2.1,0.7-3.2c-0.3-0.4-0.6-0.8-1-1.1c-3.2-3.1-6.3-6.3-9.5-9.4c-1.1,1.1-2.2,2.3-3.4,3.4c-0.8-0.7-1.5-1.5-2.3-2.3 c1.1-1.1,2.2-2.2,3.4-3.4c-2.8-2.7-5.6-5.5-8.3-8.3c-0.6-0.6-1.1-1.2-1.8-1.6c-1.3-0.4-2.5,1.4-3.7,0.4 C139.1,88.5,139.4,87.1,140.2,86.4z M228.2,213.6c-0.3-1.3-1.2-2.4-1.6-3.6c-0.4-1.1,0.6-2.3,1.7-2.1c0.5,0.1,0.9,0.5,1.3,0.8 c2.7,2.7,5.5,5.4,8.1,8.2c0.9,0.9,2,1.7,2.4,3c-0.3,0.6-0.7,1.3-1.5,1.4c-1.3,0.1-2.2-0.9-3.3-1.3c-1.6-0.8-3.4-0.8-5,0 c-0.8-0.8-1.6-1.7-2.5-2.5C228.4,216.3,228.6,214.9,228.2,213.6z M230.6,205.7c-0.7,0.1-1.3-0.3-1.9-0.6c-2.4-1.2-5.1-1.7-7.7-1.1 c-1.7,0.3-3.1,1.3-4.5,2.1c-0.8-0.8-1.5-1.6-2.3-2.4c3.1-3,6.1-6.1,9.2-9.1c2.8,2.8,5.6,5.6,8.3,8.3 C232.5,203.9,231.6,205.3,230.6,205.7z M224.4,172.5c0.5-1.7,1.2-3.4,0.9-5.1c-0.4-2.9-2.1-5.6-4-7.8c-7-7-14-14-21.1-21.1 c-1.1-1.1-2.3-2.2-3.3-3.4l0,0v0c0,0,0,0,0,0c1.2,0.4,2.3,1,3.4,1.5c4.2,2,8.3,4.1,12.5,6.1c0.4,0.2,0.7,0.5,1,0.7 c3.5,3.6,7.1,7.1,10.6,10.6c1.9,2,4.3,3.6,6.9,4.6c1.8,0.7,3.9,0.7,5.7,0.1c0.9-0.3,1.9-0.7,2.9-0.4c1,0.4,1.7,1.3,1.8,2.4 c-0.1,1.4-1,2.6-1.9,3.6c-3.2,3.2-6.3,6.4-9.6,9.5c-0.9,0.8-1.8,1.6-3,1.7C225.5,176,223.9,174.2,224.4,172.5z M201.4,149.5 c6.2,6.3,11.2,14.2,12.9,23c0.9,4.8,0.7,9.9-0.7,14.6c-1.4,4.7-3.9,9-7,12.7c-1.3-1.4-2.8-2.7-4.1-4.2c0-0.7,0.4-1.3,0.6-2 c0.7-2.3,0-4.8-1.7-6.5c-12.8-12.8-25.6-25.6-38.3-38.4c-1.2-1.2-2.6-2.1-4.3-2.3c-1.4-0.2-2.7,0.3-4,0.8c-0.5,0.3-0.9-0.4-1.2-0.6 c-1-1.1-2.2-2.1-3.2-3.3c0-0.1,0-0.2,0-0.3c3.4-2.9,7.5-5.2,11.8-6.6c5.1-1.7,10.7-1.8,16-0.7C187.1,137.7,195.1,143,201.4,149.5z M126,100.6c3.4-3.4,6.7-6.7,10-10.1c0.4-0.3,0.7-0.7,1.1-0.9c0.8-0.5,1.9-0.2,2.3,0.7c0.4,1.1-0.6,2-0.6,3c0,0.5,0.4,0.9,0.7,1.3 c7.2,7.2,14.3,14.3,21.4,21.4c1.3,1.4,2.9-1,4.3,0c0.9,0.7,0.6,2.1-0.2,2.8c-3.4,3.4-6.7,6.7-10.1,10.1c-0.5,0.5-1.1,1.1-1.8,1.4 c-0.8,0.2-1.8-0.3-1.9-1.2c-0.2-1,0.8-1.8,0.7-2.8c-0.1-0.4-0.4-0.8-0.7-1.1c-6.8-6.7-13.5-13.5-20.3-20.3c-0.6-0.6-1.2-1.3-2-1.7 c-0.9-0.1-1.7,0.6-2.6,0.7c-0.8,0-1.4-0.7-1.5-1.4C124.9,101.8,125.5,101.1,126,100.6z M118.5,108c1.5-1.5,3-3,4.6-4.6 c2.7,2.6,5.4,5.4,8.1,8c0.5,0.5,1,1,1.3,1.7c0.3,1.3-1.1,2.7-2.4,2.1c-1.3-0.6-2.3-1.6-3.5-2.2c-2-1.3-4.4-2.1-6.8-1.8 c-0.7-0.7-1.5-1.4-2.1-2.2C117.9,108.6,118.2,108.3,118.5,108z M107.3,119.3c2.9-2.8,5.7-5.7,8.6-8.6c5.4,5.5,10.9,10.9,16.3,16.3 c3,3,5.9,6,8.9,8.9c0.9,1,2,0.2,2.9-0.2c0.9-0.4,2,0.4,2,1.4c0,0.7-0.4,1.2-0.8,1.7c-3.5,3.5-7,7-10.5,10.5c-0.5,0.5-1.1,1-1.8,0.9 c-0.8,0.1-1.6-0.7-1.5-1.5c0.1-0.8,0.7-1.5,0.7-2.3c0.1-0.7-0.5-1.1-1-1.6c-8.2-8.2-16.4-16.5-24.7-24.6 C106.8,119.9,107,119.6,107.3,119.3z M99.2,127.4c1.9-1.8,3.6-3.6,5.5-5.4c1,0.4,1.5,1.4,2.3,2.1c-0.4,3,1,5.8,2.7,8.2 c0.5,0.7,1.1,1.4,1.4,2.3c0.3,1.1-0.8,2.3-1.9,2.2c-0.6,0-1.1-0.5-1.5-0.9C104.8,133,102,130.2,99.2,127.4z M176,228.3l-20,20 c-0.9,0.9-2,1.6-3.2,1.6c-1.5,0.1-3-1.4-2.9-3c0.2-1.5,1.4-2.8,1.5-4.4c-0.1-1-0.8-1.7-1.4-2.3c-5.9-6-11.9-11.9-17.8-17.8 c-0.2-0.2-0.5-0.7-0.9-0.3c-2.1,2-4.1,4.1-6.1,6.1c-1.4-1.4-2.8-2.8-4.2-4.2c2-2.1,4.1-4.1,6.1-6.1c0-0.1,0-0.3,0-0.4 c-5.6-5.5-11.1-11.1-16.7-16.6c-0.9-0.8-1.7-1.8-2.8-2.1c-1.6-0.1-2.9,1.2-4.4,1.4c-2,0.3-3.7-1.9-3.1-3.7c0.3-1.3,1.4-2.2,2.3-3.1 c6.5-6.5,12.9-12.9,19.4-19.4l0,0c0.8-0.7,1.8-1.3,2.9-1.4c1.8-0.1,3.4,1.8,2.9,3.5c-0.4,1.3-1.3,2.5-1.4,3.9 c0.1,1.2,1.1,2.1,2,2.9l39.8,39.8c0.6,0.6,1.3,1.2,2.2,1.3c1.5,0,2.7-1.1,4.1-1.4c1.7-0.3,3.4,1.2,3.3,2.9 C177.5,226.4,176.8,227.5,176,228.3z M175.1,210.5c-9.1-2-17-7.4-23.4-14.1c-5.9-6.2-10.6-13.7-12.3-22.2 c-1.1-5.6-0.8-11.5,1.2-16.9v0c1.4-4,3.7-7.6,6.3-10.8c1.3,1.3,2.7,2.6,4,4c0.3,0.8-0.4,1.6-0.5,2.4c-0.7,2.2,0.2,4.6,1.8,6.3 c12.6,12.6,25.1,25.1,37.7,37.7c1.2,1.3,2.7,2.6,4.5,2.8c1.7,0.3,3.3-0.3,4.8-0.9c1.4,1.4,2.8,2.8,4.2,4.2c-3,2.7-6.6,4.8-10.4,6.2 C187.4,211.5,181,211.8,175.1,210.5z M216.9,262.2c-0.8-0.8-1.6-1.6-2.4-2.3c0.5-0.9,1-1.8,0.9-2.8c-0.3-1.5-1.3-2.8-2.4-3.9 l-17.4-17.4c-1.2-1.2-2.5-2.4-4.3-2.6c-1-0.1-1.8,0.4-2.6,0.9c-0.7-0.8-1.8-1.4-2.2-2.5c2.8-2.9,6.7-5,10.8-5.2v0 c4.6-0.4,9.2,1.3,13,3.8c3,2,5.7,4.3,7.9,7.2c2.5,3.4,4.1,7.5,4.1,11.8C222.3,253.9,220.3,258.8,216.9,262.2z M232.4,246.7 c-0.5,0.5-1.2,0.9-1.8,1.1c-0.6-0.2-1.4-0.5-1.7-1.2c-0.4-1.2,0.9-2.2,0.7-3.4c-0.5-1-1.4-1.7-2.2-2.5l-18.8-18.8 c-1.1-1-2-2.3-3.4-3c-1.3-0.3-2.5,1.4-3.8,0.5c-1.1-0.7-0.8-2.2,0.1-3l0,0c3.6-3.6,7.2-7.2,10.7-10.7c5.8,5.7,11.5,11.5,17.3,17.2 c4.4,4.4,8.8,8.9,13.3,13.3C239.4,239.7,235.9,243.2,232.4,246.7z M244.6,234.4c-0.7-0.8-1.5-1.6-2.3-2.4c2.8-3.4,3.2-8.3,1.3-12.3 c-0.3-0.9-1.1-2.1-0.4-3c0.5-0.8,1.9-1,2.5-0.2c2.8,2.8,5.6,5.6,8.4,8.4C250.9,228.1,247.9,231.3,244.6,234.4z M267.8,211.3 c-3.6,3.6-7.2,7.2-10.9,10.8c-0.8,0.9-2.3,0.4-2.8-0.5c-0.7-1.2,1.2-2.5,0.2-3.6c-7.5-7.5-15-15-22.4-22.4c-0.5-0.5-1-1.1-1.7-1.4 c-1.1-0.3-2,0.6-3,0.7c-0.8-0.1-1.6-0.8-1.5-1.6c-0.1-0.9,0.6-1.6,1.2-2.2c3.4-3.4,6.9-6.8,10.3-10.3c3.1,2.9,6,6,9.1,9 c5.8,5.8,11.6,11.6,17.4,17.4c0.4,0.3,0.8,0.8,1.3,0.9c1.1,0.1,2-1,3.1-0.8c0.7,0.2,1.3,0.9,1.2,1.6 C269.3,209.9,268.4,210.6,267.8,211.3z M282.7,190.6c-4.2,0.2-8.2-1.3-11.7-3.5c-2.5-1.6-4.8-3.5-6.7-5.8c0.9,3,0.7,6.4-0.7,9.2 c-1.4,2.8-3.6,5.1-5.7,7.3c-0.8-0.8-1.6-1.6-2.4-2.4c0.7-1.1,1.1-2.4,0.7-3.6c-0.5-1.3-1.5-2.2-2.5-3.2c-1.9-1.9-3.9-3.9-5.8-5.8 c-1.1-1.1-2.4-2.3-4-2.4c-1-0.1-1.8,0.4-2.6,0.9c-0.8-0.8-1.6-1.6-2.4-2.3c3.1-3.1,6.6-6.4,11.2-6.9c3.7-0.6,7.5,1,10.1,3.5 c-1.7-3.3-2.7-7-2.3-10.8c0.3-3.9,2-7.7,4.6-10.6c0.7,0.8,1.5,1.5,2.3,2.3c-0.3,0.9-0.7,1.9-0.5,2.9c0.2,0.9,0.7,1.6,1.4,2.2 c6.8,6.8,13.6,13.6,20.4,20.4c0.8,0.8,1.6,1.7,2.7,2c1,0.3,2.1-0.1,3.1-0.4c0.8,0.8,1.6,1.6,2.3,2.4 C291.1,188.7,287,190.6,282.7,190.6z M284,138.6c-0.3,2.6,0.5,5.1,1.9,7.3c0.7,1.2,1.7,2.3,2.3,3.6c0.3,0.6,0.1,1.3-0.1,1.9 c3.3,2.2,6.1,5,8.4,8.2c2.6,3.7,4.4,8.1,4.3,12.7c0,4.4-1.9,8.5-4.6,11.9c-0.7-0.8-1.6-1.5-2.3-2.3c0.1-1,0.6-1.9,0.4-2.8 c-0.3-1.2-1.2-2.1-2.1-3c-6.8-6.8-13.6-13.6-20.4-20.4c-0.7-0.7-1.5-1.3-2.4-1.4c-0.9-0.1-1.8,0.2-2.6,0.4 c-0.8-0.7-1.6-1.5-2.4-2.3c3.4-2.9,7.9-4.8,12.5-4.6c1.8-0.1,3.5,0.4,5.2,0.7c-2.1-2.1-4.3-4.2-6.3-6.4c1.9-1.9,3.9-3.9,5.8-5.8 C282.4,137,283.2,137.9,284,138.6z M281.8,122.5c-6.6,6.6-13.3,13.3-19.9,19.9c-0.9,0.9-1.9,1.6-3.2,1.6c-1.4,0.1-2.7-1.1-2.9-2.5 c-0.2-1.8,1.5-3.2,1.4-5c-0.1-0.9-0.7-1.5-1.2-2.2c-11.6-11.6-23.2-23.2-34.8-34.7c9.6,17.8,19.2,35.5,28.8,53.3 c0.2,0.3,0.3,0.5,0.4,0.9c-0.7,0.6-1.4,1.3-2,2c-19.2-9.5-38.4-19-57.5-28.5c-3-1.5-6-3.3-9.4-3.7c-1.1-0.2-1.9,0.8-2.7,1.4 c-0.9,0.7-2,1.1-3,0.7c-1.3-0.6-2.1-2.1-1.8-3.4c0.3-0.9,0.9-1.7,1.6-2.4c6.2-6.2,12.4-12.4,18.6-18.5c9.7,4.7,19.3,9.4,29,14.1 c0.3,0.2,0.6,0.5,0.9,0.8c0.2-0.2,0.3-0.4,0.4-0.5l-0.4,0.1c-5.1-9.7-10.4-19.2-15.5-28.9c6.4-6.4,12.7-12.7,19.1-19.1 c0.7-0.7,1.6-1.2,2.6-1.3c1.7-0.3,3.5,1.4,3.2,3.2c-0.2,1.5-1.5,2.8-1.4,4.4c0.3,1.1,1.2,1.9,1.9,2.7 c13.2,13.2,26.4,26.3,39.5,39.5c0.7,0.6,1.4,1.5,2.5,1.5c1.5,0,2.7-1.2,4.2-1.4c1.7-0.3,3.4,1.4,3.2,3.1 C283.3,120.7,282.6,121.7,281.8,122.5z M290.4,114c-0.8,0.8-1.8,1.4-3,1.5c-1.6,0.1-3.2-1.3-3-2.9c0.1-1.6,1.4-2.8,1.4-4.4 c0.1-1-0.7-1.8-1.4-2.5c-13.4-13.3-26.7-26.7-40-40c-0.7-0.7-1.6-1.6-2.7-1.5c-1.7,0-2.9,1.6-4.6,1.4c-1,0-1.8-0.7-2.3-1.5 c-0.7-1.4-0.1-3.1,1-4.1c6.3-6.3,12.5-12.5,18.7-18.8c0.2-0.3,0.6-0.5,0.9-0.1c18,18,36,36,54,54C303,101.4,296.7,107.7,290.4,114z M309.6,129.4c-1.2,0.2-2.2-0.8-3.2-1.4c-2.6-1.8-5.6-3.4-8.8-2.9c-0.9-0.8-1.7-1.6-2.4-2.5c2-1.9,3.9-3.9,5.8-5.8 c3.2,3.2,6.4,6.3,9.5,9.5C311.7,127.2,311,129.2,309.6,129.4z M122.2,267.2c0.7,0.8,1.7,1.6,1.8,2.7c-0.1,1.1-0.6,2.1-1.1,3 c0,0,0,0,0,0c-15.3,0-30.6,0-45.9,0c0-15.3,0-30.7,0-46c1-0.4,2-1.1,3.2-1c1.4,0.3,2.2,1.5,3.2,2.4 C96.3,241.3,109.3,254.2,122.2,267.2z"></path> </g> </svg> 