<?xml version="1.0" encoding="UTF-8"?> <!-- Generator: Adobe Illustrator 23.0.3, SVG Export Plug-In . SVG Version: 6.00 Build 0) --> <svg xmlns:cc="http://creativecommons.org/ns#" xmlns:dc="http://purl.org/dc/elements/1.1/" xmlns:inkscape="http://www.inkscape.org/namespaces/inkscape" xmlns:rdf="http://www.w3.org/1999/02/22-rdf-syntax-ns#" xmlns:sodipodi="http://sodipodi.sourceforge.net/DTD/sodipodi-0.dtd" xmlns:svg="http://www.w3.org/2000/svg" xmlns="http://www.w3.org/2000/svg" xmlns:xlink="http://www.w3.org/1999/xlink" id="logosvg.com" inkscape:version="0.92.2 (5c3e80d, 2017-08-06)" sodipodi:docname="mitsubishi-motors-logo.svg" x="0px" y="0px" viewBox="0 0 400 300" style="enable-background:new 0 0 400 300;" xml:space="preserve"> <style type="text/css"> .st0{fill:#231916;} .st1{fill:#E60013;} </style> <path id="text" class="st0" d="M109,232.9v-21.8l-9.3,15.6l-9.4-15.6v21.8h-6.9v-30.9h9l7.4,12.6l7.1-12.6h9.1v30.9H109z M121.8,202.1h6.9v30.9h-6.9V202.1z M131.8,202.1h23.7v6.5h-8.4v24.4H140v-24.4h-8.2V202.1z M157.9,232.6v-6.5 c1.5,0.3,4.9,0.9,9.1,0.9c3.5,0,5.3-0.4,5.3-2.5c0-2.2-1.5-2.5-6.5-4.9c-4.9-2.2-8.5-4.1-8.5-9.4c0-6.5,4-8.7,11.6-8.7 c4,0,6.8,0.3,8.7,0.6v6.5c-1.8-0.1-4.9-0.6-8.4-0.6c-4.1,0-5,0.4-5,2.2s2.2,2.6,5.6,4.1c5.1,2.4,9.3,4.3,9.3,10.1 c0,6.2-3.8,9-12.1,9C163.8,233.4,160.9,233.1,157.9,232.6 M183.4,222.5v-20.4h6.9v20.1c0,3.5,2.1,4.7,5.4,4.7c3.2,0,5.4-1.2,5.4-4.7 v-20.1h6.9v20.4c0,7.5-4.9,10.9-12.4,10.9S183.4,230,183.4,222.5 M214,202.1h13.5c6.3,0,9.9,2.4,9.9,7.9c0,4.4-2.5,5.9-4.9,6.8 c2.8,0.9,5.7,2.4,5.7,7.5c0,5.4-3.2,8.7-10.1,8.7h-14v-30.9L214,202.1z M226.5,214.6c2.8,0,3.8-1.5,3.8-3.5c0-2.5-1.2-3.1-3.8-3.1 h-5.6v6.6H226.5z M226.9,227.2c2.8,0,4-1,4-3.7c0-2.4-1-3.4-3.7-3.4h-6.3v7.1H226.9z M242.2,202.1h6.9v30.9h-6.9V202.1z M254.1,232.6v-6.5c1.5,0.3,4.9,0.9,9.1,0.9c3.5,0,5.3-0.4,5.3-2.5c0-2.2-1.5-2.5-6.5-4.9c-4.9-2.2-8.5-4.1-8.5-9.4 c0-6.5,4-8.7,11.6-8.7c4,0,6.8,0.3,8.7,0.6v6.5c-1.8-0.1-4.9-0.6-8.4-0.6c-4.1,0-5,0.4-5,2.2s2.2,2.6,5.6,4.1 c5.1,2.4,9.3,4.3,9.3,10.1c0,6.2-3.8,9-12.1,9C260.1,233.4,257.1,233.1,254.1,232.6 M297.1,232.9v-12.2h-11v12.2h-6.9v-30.9h6.9 v12.2h11v-12.2h6.9v30.9H297.1z M309.7,202.1h6.9v30.9h-6.9V202.1z M141.3,274.6v-21.8l-9.3,15.6l-9.3-15.6v21.8h-7.1v-30.9h9 l7.4,12.5l7.2-12.5h9.1v30.9H141.3z M153.1,259.1c0-11,4.3-15.9,13.4-15.9s13.4,4.9,13.4,15.9s-4.3,15.9-13.4,15.9 S153.1,270.1,153.1,259.1 M172.5,259.1c0-6.3-1-9.6-6.2-9.6c-5,0-6.2,3.2-6.2,9.6c0,6.3,1,9.6,6.2,9.6 C171.5,268.7,172.5,265.4,172.5,259.1 M180.9,243.7h23.7v6.5h-8.4v24.4h-6.9v-24.4h-8.4V243.7z M205.7,259.1 c0-11,4.3-15.9,13.4-15.9s13.4,4.9,13.4,15.9s-4.3,15.9-13.4,15.9S205.7,270.1,205.7,259.1 M225.1,259.1c0-6.3-1-9.6-6.2-9.6 c-5.1,0-6.2,3.2-6.2,9.6c0,6.3,1,9.6,6.2,9.6C224.1,268.7,225.1,265.4,225.1,259.1 M237.1,243.7h12.5c6.6,0,10.9,2.5,10.9,9.9 c0,4.9-2.4,7.9-6.3,8.8l7.6,12.2h-8.1l-6.5-11h-3.1v11h-6.9v-30.9H237.1z M249.3,257.5c3.1,0,4.1-1.6,4.1-4c0-2.4-1-4-4.1-4h-5.1 v7.9H249.3z M264.6,274.1v-6.5c1.5,0.3,4.9,0.9,9.1,0.9c3.5,0,5.3-0.4,5.3-2.5c0-2.2-1.5-2.5-6.5-4.9c-4.9-2.2-8.5-4.1-8.5-9.4 c0-6.5,4-8.7,11.6-8.7c4,0,6.8,0.3,8.7,0.6v6.5c-1.8-0.1-4.9-0.6-8.4-0.6c-4.1,0-5,0.4-5,2.1c0,1.8,2.2,2.6,5.6,4.1 c5.1,2.4,9.3,4.3,9.3,10.1c0,6.2-3.8,9-12.1,9C270.6,275,267.5,274.7,264.6,274.1"></path> <path id="red" class="st1" d="M229.3,76.2l-29.7,51.3L170,76.2L199.6,25L229.3,76.2z M258.8,127.5h-59.3l29.7,51.2h59.1L258.8,127.5 z M110.9,178.7H170l29.6-51.2h-59.1L110.9,178.7z"></path> </svg> 