<?xml version="1.0" encoding="UTF-8"?> <!-- Generator: Adobe Illustrator 23.0.3, SVG Export Plug-In . SVG Version: 6.00 Build 0) --> <svg xmlns="http://www.w3.org/2000/svg" xmlns:xlink="http://www.w3.org/1999/xlink" id="logosvg.com" x="0px" y="0px" viewBox="0 0 400 300" style="enable-background:new 0 0 400 300;" xml:space="preserve"> <style type="text/css"> .st0{fill:#E50024;} </style> <path id="logo" class="st0" d="M200,259c-59.7,0-108.5-48.3-109-108.1C90.5,90.8,139,41.5,199.1,41l1.7,0l0.1,0 c28.8,0.2,55.8,11.6,76.2,31.9c20.4,20.4,31.7,47.4,31.9,76.2c0.5,60.1-48,109.4-108.1,109.9C200.6,259,200.3,259,200,259z M199.4,77.3c-40,0.4-72.3,33.2-72,73.2c0.3,39.9,32.9,72.1,72.7,72.1c0.2,0,0.4,0,0.6,0c40.1-0.3,72.4-33.2,72.1-73.2 c-0.3-39.4-32.6-71.7-72-72.1H199.4z M200,186.3c-0.5,0-1,0-1.5,0c-20-0.8-35.7-17.7-34.9-37.8c0.8-18.8,16.1-34.1,34.9-34.9l0.7,0 l2.2,0c20,0.8,35.7,17.7,34.9,37.8c-0.4,9.7-4.5,18.7-11.7,25.2C217.9,182.9,209.2,186.3,200,186.3z"></path> </svg> 