<?xml version="1.0" encoding="UTF-8"?> <!-- Generator: Adobe Illustrator 23.0.1, SVG Export Plug-In . SVG Version: 6.00 Build 0) --> <svg xmlns="http://www.w3.org/2000/svg" xmlns:xlink="http://www.w3.org/1999/xlink" id="logosvg.com" x="0px" y="0px" viewBox="0 0 400 300" style="enable-background:new 0 0 400 300;" xml:space="preserve"> <style type="text/css"> .st0{fill:#341B14;} .st1{fill:#FFB406;} </style> <path class="st0" d="M199.8,284.2c2.4-1.2,64.5-28.1,84.2-44.2c20.3-16.7,31.1-40.6,31.1-69.3V36.4l-1.8-0.6 C263.7,8.9,202.2,10.7,199.2,10.7c-2.4,0-63.9-1.8-113.5,25.1l-1.2,0.6v135c0,28.7,10.8,52.6,31.1,69.3 C135.2,256.8,197.4,283.7,199.8,284.2"></path> <path class="st1" d="M199.8,287.2c0,0-65.7-28.7-86-44.8c-21.5-17.9-31.7-42.4-31.7-70.5V32.2c52-28.1,117.7-25.7,117.7-25.7 s65.7-2.4,117.7,25.7v139.2c0,28.1-10.2,52.6-31.7,70.5C265.5,258.6,199.8,287.2,199.8,287.2 M91.6,171.9c0,26.3,9.6,47.8,28.1,62.7 c16.7,13.7,66.3,35.8,80,41.8c13.7-6,63.9-28.7,80-41.8c18.5-14.9,28.1-37,28.1-62.7V34.6c-69.3-6.6-151.7-3-216.2,56.7L91.6,171.9 L91.6,171.9z"></path> <path class="st1" d="M266.1,152.2c9,5.4,12.5,9,13.1,15.5c0,7.2-4.8,11.3-12.5,11.3c-6.6,0-14.3-3.6-19.7-8.4v19.1 c6.6,3.6,14.3,6.6,22.7,6.6c20.3,0,29.9-14.3,29.9-27.5c0.6-11.9-3-21.5-20.3-31.7c-7.8-4.8-13.7-7.8-13.7-14.9s6.6-10.2,11.9-10.2 c7.2,0,14.3,4.2,18.5,8.4v-17.9c-3.6-3-11.3-7.2-22.7-6.6c-13.7,0.6-28.1,10.2-28.1,26.9C245.8,134.3,249.3,142.7,266.1,152.2 M195.6,195.2c1.8,0.6,4.8,1.2,9.6,1.2c23.3,0,36.4-20.9,36.4-50.8c0-30.5-13.7-49-38.2-49c-11.3,0-20.3,2.4-28.1,7.2v135h20.3 V195.2L195.6,195.2z M195.6,114c1.8-0.6,4.8-1.8,7.2-1.8c11.9,0,16.7,9.6,16.7,32.9c0,22.7-6,33.5-17.9,33.5c-3,0-5.4-0.6-6.6-1.2 V114H195.6z M132.9,196.4c12.5,0,23.3-3,31.1-8.4V97.9H143v78.3c-2.4,1.8-5.4,2.4-9.6,2.4c-9.6,0-10.8-9-10.8-14.3V97.9h-20.9V163 C101.8,185.1,112.6,196.4,132.9,196.4 M272,277.1v13.7h2.4v-5.4h0.6l3.6,5.4h3c0,0-3.6-5.4-4.2-6c1.8-0.6,3-1.8,3-3.6 s-1.2-4.2-4.8-4.2H272L272,277.1z M275.6,278.9c1.8,0,2.4,1.2,2.4,1.8c0,1.2-0.6,2.4-3,2.4h-0.6v-4.2H275.6L275.6,278.9z"></path> <path class="st1" d="M285.2,283.7c0,4.8-4.2,9-9,9c-4.8,0-9-4.2-9-9s4.2-9,9-9C281.6,274.7,285.2,278.9,285.2,283.7 M276.2,272.3 c-6,0-11.3,4.8-11.3,11.3c0,6,4.8,11.3,11.3,11.3c6,0,11.3-4.8,11.3-11.3C287.6,277.7,282.2,272.3,276.2,272.3"></path> </svg> 