<?xml version="1.0" encoding="UTF-8"?> <!-- Generator: Adobe Illustrator 23.0.3, SVG Export Plug-In . SVG Version: 6.00 Build 0) --> <svg xmlns:cc="http://creativecommons.org/ns#" xmlns:dc="http://purl.org/dc/elements/1.1/" xmlns:inkscape="http://www.inkscape.org/namespaces/inkscape" xmlns:rdf="http://www.w3.org/1999/02/22-rdf-syntax-ns#" xmlns:sodipodi="http://sodipodi.sourceforge.net/DTD/sodipodi-0.dtd" xmlns:svg="http://www.w3.org/2000/svg" xmlns="http://www.w3.org/2000/svg" xmlns:xlink="http://www.w3.org/1999/xlink" id="logosvg.com" sodipodi:docname="wegmanslogo.svg" x="0px" y="0px" viewBox="0 0 400 300" style="enable-background:new 0 0 400 300;" xml:space="preserve"> <path id="logo" d="M119.4,128.9c-10.4,24-36.3,46.3-54,46.6c-4.6,0.1-5.5-0.2-7.3-1.9c-1.1-1.1-2.5-3.4-3-5.2l-0.9-3.2l-3.7,2.7 c-7.9,5.7-18.4,9.1-22.4,7.4c-4.9-2.1-5.5-8.9-1.9-19.8c1.3-3.9,2.4-7.3,2.4-7.7s-1.3-0.3-2.9,0.1C21.8,148.9,13.5,148,9,146 c-2.8-1.2-3.3-1.7-2.4-2.3c0.6-0.4,2.4-0.7,3.9-0.7c3.9,0,11.1-2,15.5-4.3c6.3-3.2,11.4-8.5,17.8-18.5l6-9.4h7c3.8,0,7,0.2,7,0.5 s-2.5,4.8-5.4,10c-13.5,23.6-19.9,39.7-16.3,41c2,0.8,6.5-1.9,12-7c4.6-4.4,6.1-6.6,15.6-24.4l10.5-19.6l7.2-0.2 c5.6-0.2,7.1,0,6.8,0.8c-0.2,0.6-5.4,10.4-11.5,21.8c-9,16.9-11.1,21.4-11.1,24c0,1.7,0.4,3.6,0.9,4.1c4.7,4.7,20.8-9.8,29.1-26.2 c3-6,5.9-16,6.9-23.8c1.7-13.2-2.7-22.5-10.9-23.2c-2.4-0.2-2.1-0.8,1.4-2.8c6.2-3.5,13.2-3,18.2,1.2 C125.9,94.1,126.7,111.9,119.4,128.9z M385.9,143c1.9-3.5,0.1-7-3.1-6c-3.1,1-2.9,4,1,11.5c3,5.9,3.6,7.7,3.6,11.4 c0,7.3-3.1,11.3-10.8,14.1c-4.5,1.6-14.1,1.4-18-0.4c-3.4-1.6-6.4-4.7-7.1-7.7c-0.3-1-0.6-1.8-0.8-1.8s-2.2,1.5-4.4,3.3 c-7.3,5.8-13.8,7.7-16.7,4.9c-2-2-1-5.8,4.8-17c2.8-5.6,5-10.6,4.8-11.2c-0.6-1.5-3.8-0.3-8.5,3.2c-3.1,2.2-4.7,4.5-9.8,14.1 l-6.2,11.4l-6.1,0c-4,0-6.1-0.3-6.1-0.9c0-0.5,1.1-2.8,2.4-5.1s2.2-4.2,1.9-4.2s-2.2,1.4-4.3,3.2c-5.4,4.6-12.5,8.6-15,8.6 c-2.4,0-5.4-3.1-5.4-5.6c0-1.2-0.8-0.9-4.5,1.7c-5.1,3.5-9.6,4.7-13.3,3.8h0c-3.7-1-5.1-3.5-5-9.7l0-5.2l-6,5.1 c-9.2,7.9-16.6,10.9-19.1,7.9c-1.7-2.1-0.3-7.1,5.1-17.7c6-11.9,5.9-13.2-0.5-9.4c-6.3,3.7-6.2,3.5-12.8,16l-6.2,11.6h-6.5 c-3.7,0-6.5-0.3-6.5-0.8c0-0.4,3-6.4,6.7-13.2c6-11.2,7.8-15.9,6.1-15.8c-0.8,0-8.1,4.4-10.1,6c-0.9,0.8-4.4,6.4-7.7,12.6l-6.1,11.2 h-6.2c-3.4,0-6.2-0.2-6.2-0.4c0-0.2,1.7-3.5,3.7-7.3c2-3.8,6.6-12.1,10.1-18.6l6.4-11.8l6.4-0.2c3.5-0.1,6.4,0.1,6.4,0.4 c0,0.3-0.7,1.8-1.6,3.2c-0.9,1.4-1.6,2.7-1.6,2.9c0,0.2,2.8-1.1,6.2-2.9c7.9-4.1,14.3-5,15.8-2.2c0.5,1,0.7,2.8,0.5,4 c-0.2,1.2-0.3,2.3-0.1,2.3c0.2,0,2-1,4.1-2.3c8.2-5,16.9-7,19.1-4.4c1.6,2,0.4,7.1-3.8,15.8c-2.2,4.5-3.8,8.1-3.5,8.1 c0.7,0,12.3-9.3,18.8-15.1c9.6-8.5,18.4-11.9,24.3-9.2c1.5,0.7,2.2,0.7,2.9,0c0.5-0.5,3.4-0.9,7-0.9h6.1l-5.9,11.3 c-5.6,10.8-7.9,16.1-6.8,16.1c0.3,0,3.7-2.4,7.6-5.4c7.4-5.7,10.2-8.9,14.5-17.1l2.6-4.9h6.2c6.8,0,7.1,0.3,4.5,4.4l-1.6,2.7 l7.3-3.5c8.6-4.2,13.3-4.7,15.2-1.8c1.7,2.6,0.5,6.9-4.9,17.3c-2.5,4.8-4.6,9.1-4.8,9.5c-0.7,1.6,3.4-1.5,7.5-5.8 c5.8-6,11.2-8.3,15.4-6.6c1,0.4,0.9,0.7-0.7,2c-2.3,1.8-5.1,6.9-5.1,9.3c0,4.5,5.6,9.4,9.2,8.1c4.5-1.6,5.2-4.9,2.6-12.2 c-2.1-5.9-2.1-13,0-17.1c3-5.9,11.6-8.8,17.3-5.9c5.7,2.9,3.2,9.8-3.6,9.8C385.4,144.5,385.2,144.3,385.9,143z M288.4,141.6 c-2.7-0.2-3.4,0.2-7.1,3.9c-6.4,6.5-10.7,16.9-7.5,18.2c1.9,0.8,2.7,0.5,5.8-1.7c4.2-3,7-6.5,9.8-12.1 C292.5,143.8,292.3,141.9,288.4,141.6z M189.9,148.5c-4.1,7.6-10.3,19-13.8,25.5c-9.2,17-14.1,24.3-21.3,31.5 c-7.7,7.7-13.1,10.6-20.3,11c-2.7,0.2-6-0.1-7.4-0.5c-5.1-1.6-8.8-7.7-7.8-12.8c0.6-3.1,3.1-7.3,4.9-8.3c1.3-0.7,1.4-0.4,1.1,3.1 c-0.2,3.2,0,4.1,1.7,5.8c5,5,15.2,0.6,24-10.4c3.5-4.3,11.7-18,13.2-21.8c0.5-1.3,0.3-1.3-1.8,0.2c-3.2,2.3-8.1,3.5-10.9,2.7 c-3.4-0.9-5.9-5-5.9-9.6v-3.8l-5.3,4c-13.9,10.6-28.5,12.4-32.3,4.1c-3-6.5,1.2-17.6,9.3-25c13-11.8,31.1-14.2,30.8-4.2 c-0.2,8.3-11,17.4-23.8,20.2c-3.5,0.8-3.8,1-3.1,2.3c1.4,2.6,7.4,2,14.2-1.4c4.6-2.3,7.9-4.9,16.1-13c11.4-11.1,16-14,22.5-14 c2.1,0,4.9,0.6,6.2,1.3c2.3,1.2,2.5,1.2,3.4,0c0.8-1.1,2.1-1.3,7.3-1.1l6.3,0.2L189.9,148.5z M121.9,153.2c0.4,0,2.2-0.5,4.2-1.2 c4.3-1.5,9.3-5.8,9.3-8.1c0-4.9-8-2.4-11.9,3.7C121.3,151.1,120.7,153.2,121.9,153.2z M174.4,141.6c-2.6-0.2-3.3,0.2-7,3.9 c-4.4,4.5-8.4,11.4-8.4,14.8c0,4.4,3.5,4.8,8.4,1.1c3.1-2.4,5.5-5.5,9-11.9C179.5,143.7,179,142,174.4,141.6z"></path> </svg> 