<?xml version="1.0" encoding="UTF-8"?> <!-- Generator: Adobe Illustrator 23.0.3, SVG Export Plug-In . SVG Version: 6.00 Build 0) --> <svg xmlns:svg="http://www.w3.org/2000/svg" xmlns="http://www.w3.org/2000/svg" xmlns:xlink="http://www.w3.org/1999/xlink" id="logosvg.com" x="0px" y="0px" viewBox="0 0 400 300" style="enable-background:new 0 0 400 300;" xml:space="preserve"> <style type="text/css"> .st0{fill:#006F46;} </style> <path id="green" class="st0" d="M245.1,154.7c0,0-1.4,0.1-2.2,0.2c-2.7,0.4-3.6,1.2-3.6,4.6v26.6c0,3.6,2.3,3.8,5.5,4 c7.8,0.4,12.3-6.5,12.3-17.7C257.1,161.3,252.7,154.7,245.1,154.7 M245.1,154.7c0,0-1.4,0.1-2.2,0.2c-2.7,0.4-3.6,1.2-3.6,4.6v26.6 c0,3.6,2.3,3.8,5.5,4c7.8,0.4,12.3-6.5,12.3-17.7C257.1,161.3,252.7,154.7,245.1,154.7 M163.4,155.1c-7,0-11.3,6.7-11.3,17.7 c0,10.8,4.2,17.3,11.4,17.3c7,0,11.4-6.8,11.4-17.4C174.9,161.9,170.4,155.1,163.4,155.1 M205.1,155.1c-7,0-11.3,6.7-11.3,17.7 c0,10.8,4.3,17.3,11.4,17.3c7,0,11.4-6.8,11.4-17.4C216.5,161.9,212.1,155.1,205.1,155.1 M245.1,154.7c0,0-1.4,0.1-2.2,0.2 c-2.7,0.4-3.6,1.2-3.6,4.6v26.6c0,3.6,2.3,3.8,5.5,4c7.8,0.4,12.3-6.5,12.3-17.7C257.1,161.3,252.7,154.7,245.1,154.7 M245.1,154.7 c0,0-1.4,0.1-2.2,0.2c-2.7,0.4-3.6,1.2-3.6,4.6v26.6c0,3.6,2.3,3.8,5.5,4c7.8,0.4,12.3-6.5,12.3-17.7 C257.1,161.3,252.7,154.7,245.1,154.7 M205.1,155.1c-7,0-11.3,6.7-11.3,17.7c0,10.8,4.3,17.3,11.4,17.3c7,0,11.4-6.8,11.4-17.4 C216.5,161.9,212.1,155.1,205.1,155.1 M163.4,155.1c-7,0-11.3,6.7-11.3,17.7c0,10.8,4.2,17.3,11.4,17.3c7,0,11.4-6.8,11.4-17.4 C174.9,161.9,170.4,155.1,163.4,155.1 M169.1,217.7c-0.1-0.2-1.7-3.4-1.9-3.8c-0.2-0.4-0.6-0.4-0.8,0c-0.2,0.4-1.7,3.5-1.8,3.8 c-0.2,0.4,0,0.6,0.4,0.6h3.7C169,218.2,169.2,218,169.1,217.7 M163.4,155.1c-7,0-11.3,6.7-11.3,17.7c0,10.8,4.2,17.3,11.4,17.3 c7,0,11.4-6.8,11.4-17.4C174.9,161.9,170.4,155.1,163.4,155.1 M205.1,155.1c-7,0-11.3,6.7-11.3,17.7c0,10.8,4.3,17.3,11.4,17.3 c7,0,11.4-6.8,11.4-17.4C216.5,161.9,212.1,155.1,205.1,155.1 M245.1,154.7c0,0-1.4,0.1-2.2,0.2c-2.7,0.4-3.6,1.2-3.6,4.6v26.6 c0,3.6,2.3,3.8,5.5,4c7.8,0.4,12.3-6.5,12.3-17.7C257.1,161.3,252.7,154.7,245.1,154.7 M245.1,154.7c0,0-1.4,0.1-2.2,0.2 c-2.7,0.4-3.6,1.2-3.6,4.6v26.6c0,3.6,2.3,3.8,5.5,4c7.8,0.4,12.3-6.5,12.3-17.7C257.1,161.3,252.7,154.7,245.1,154.7 M205.1,155.1 c-7,0-11.3,6.7-11.3,17.7c0,10.8,4.3,17.3,11.4,17.3c7,0,11.4-6.8,11.4-17.4C216.5,161.9,212.1,155.1,205.1,155.1 M163.4,155.1 c-7,0-11.3,6.7-11.3,17.7c0,10.8,4.2,17.3,11.4,17.3c7,0,11.4-6.8,11.4-17.4C174.9,161.9,170.4,155.1,163.4,155.1 M169.1,217.7 c-0.1-0.2-1.7-3.4-1.9-3.8c-0.2-0.4-0.6-0.4-0.8,0c-0.2,0.4-1.7,3.5-1.8,3.8c-0.2,0.4,0,0.6,0.4,0.6h3.7 C169,218.2,169.2,218,169.1,217.7 M169.1,217.7c-0.1-0.2-1.7-3.4-1.9-3.8c-0.2-0.4-0.6-0.4-0.8,0c-0.2,0.4-1.7,3.5-1.8,3.8 c-0.2,0.4,0,0.6,0.4,0.6h3.7C169,218.2,169.2,218,169.1,217.7 M163.4,155.1c-7,0-11.3,6.7-11.3,17.7c0,10.8,4.2,17.3,11.4,17.3 c7,0,11.4-6.8,11.4-17.4C174.9,161.9,170.4,155.1,163.4,155.1 M193.1,211.1h-4.7c-0.5,0-1,0.2-1,0.8v3.4c0,0.5,0.5,0.9,1,0.9h4.7 c1.6,0,2.9-0.8,2.9-2.5S194.7,211.1,193.1,211.1 M205.1,155.1c-7,0-11.3,6.7-11.3,17.7c0,10.8,4.3,17.3,11.4,17.3 c7,0,11.4-6.8,11.4-17.4C216.5,161.9,212.1,155.1,205.1,155.1 M245.1,154.7c0,0-1.4,0.1-2.2,0.2c-2.7,0.4-3.6,1.2-3.6,4.6v26.6 c0,3.6,2.3,3.8,5.5,4c7.8,0.4,12.3-6.5,12.3-17.7C257.1,161.3,252.7,154.7,245.1,154.7 M245.1,154.7c0,0-1.4,0.1-2.2,0.2 c-2.7,0.4-3.6,1.2-3.6,4.6v26.6c0,3.6,2.3,3.8,5.5,4c7.8,0.4,12.3-6.5,12.3-17.7C257.1,161.3,252.7,154.7,245.1,154.7 M205.1,155.1 c-7,0-11.3,6.7-11.3,17.7c0,10.8,4.3,17.3,11.4,17.3c7,0,11.4-6.8,11.4-17.4C216.5,161.9,212.1,155.1,205.1,155.1 M163.4,155.1 c-7,0-11.3,6.7-11.3,17.7c0,10.8,4.2,17.3,11.4,17.3c7,0,11.4-6.8,11.4-17.4C174.9,161.9,170.4,155.1,163.4,155.1 M193.1,211.1h-4.7 c-0.5,0-1,0.2-1,0.8v3.4c0,0.5,0.5,0.9,1,0.9h4.7c1.6,0,2.9-0.8,2.9-2.5S194.7,211.1,193.1,211.1 M169.1,217.7 c-0.1-0.2-1.7-3.4-1.9-3.8c-0.2-0.4-0.6-0.4-0.8,0c-0.2,0.4-1.7,3.5-1.8,3.8c-0.2,0.4,0,0.6,0.4,0.6h3.7 C169,218.2,169.2,218,169.1,217.7 M169.1,217.7c-0.1-0.2-1.7-3.4-1.9-3.8c-0.2-0.4-0.6-0.4-0.8,0c-0.2,0.4-1.7,3.5-1.8,3.8 c-0.2,0.4,0,0.6,0.4,0.6h3.7C169,218.2,169.2,218,169.1,217.7 M163.4,155.1c-7,0-11.3,6.7-11.3,17.7c0,10.8,4.2,17.3,11.4,17.3 c7,0,11.4-6.8,11.4-17.4C174.9,161.9,170.4,155.1,163.4,155.1 M193.1,211.1h-4.7c-0.5,0-1,0.2-1,0.8v3.4c0,0.5,0.5,0.9,1,0.9h4.7 c1.6,0,2.9-0.8,2.9-2.5S194.7,211.1,193.1,211.1 M205.1,155.1c-7,0-11.3,6.7-11.3,17.7c0,10.8,4.3,17.3,11.4,17.3 c7,0,11.4-6.8,11.4-17.4C216.5,161.9,212.1,155.1,205.1,155.1 M245.1,154.7c0,0-1.4,0.1-2.2,0.2c-2.7,0.4-3.6,1.2-3.6,4.6v26.6 c0,3.6,2.3,3.8,5.5,4c7.8,0.4,12.3-6.5,12.3-17.7C257.1,161.3,252.7,154.7,245.1,154.7 M245.1,154.7c0,0-1.4,0.1-2.2,0.2 c-2.7,0.4-3.6,1.2-3.6,4.6v26.6c0,3.6,2.3,3.8,5.5,4c7.8,0.4,12.3-6.5,12.3-17.7C257.1,161.3,252.7,154.7,245.1,154.7 M205.1,155.1 c-7,0-11.3,6.7-11.3,17.7c0,10.8,4.3,17.3,11.4,17.3c7,0,11.4-6.8,11.4-17.4C216.5,161.9,212.1,155.1,205.1,155.1 M163.4,155.1 c-7,0-11.3,6.7-11.3,17.7c0,10.8,4.2,17.3,11.4,17.3c7,0,11.4-6.8,11.4-17.4C174.9,161.9,170.4,155.1,163.4,155.1 M193.1,211.1h-4.7 c-0.5,0-1,0.2-1,0.8v3.4c0,0.5,0.5,0.9,1,0.9h4.7c1.6,0,2.9-0.8,2.9-2.5S194.7,211.1,193.1,211.1 M169.1,217.7 c-0.1-0.2-1.7-3.4-1.9-3.8c-0.2-0.4-0.6-0.4-0.8,0c-0.2,0.4-1.7,3.5-1.8,3.8c-0.2,0.4,0,0.6,0.4,0.6h3.7 C169,218.2,169.2,218,169.1,217.7 M298.5,193.4c0-0.4-0.4-0.5-0.9-0.5H297v1.1h0.4C298,193.9,298.5,193.9,298.5,193.4 M298.5,196.1 l-1.1-1.6H297v1.6h-0.7v-3.9h1.5c0.9,0,1.3,0.4,1.3,1.2c0,0.8-0.4,1.1-1,1.1l1.1,1.6H298.5L298.5,196.1z M297.6,191.6 c-1.5,0-2.6,1.1-2.6,2.7c0,1.5,1.1,2.7,2.6,2.7c1.5,0,2.6-1.1,2.6-2.7C300.2,192.7,299.1,191.6,297.6,191.6 M167.2,213.8 c-0.2-0.4-0.6-0.4-0.8,0c-0.2,0.4-1.7,3.5-1.8,3.8c-0.2,0.4,0,0.6,0.4,0.6h3.7c0.3,0,0.5-0.2,0.4-0.6 C169,217.5,167.4,214.2,167.2,213.8 M163.4,155.1c-7,0-11.3,6.7-11.3,17.7c0,10.8,4.2,17.3,11.4,17.3c7,0,11.4-6.8,11.4-17.4 C174.9,161.9,170.4,155.1,163.4,155.1 M193.1,211.1h-4.7c-0.5,0-1,0.2-1,0.8v3.4c0,0.5,0.5,0.9,1,0.9h4.7c1.6,0,2.9-0.8,2.9-2.5 S194.7,211.1,193.1,211.1 M205,155.1c-7,0-11.3,6.7-11.3,17.7c0,10.8,4.3,17.3,11.4,17.3c7,0,11.4-6.8,11.4-17.4 C216.5,161.9,212.1,155.1,205,155.1 M257.1,172.5c0-11.2-4.5-17.8-12-17.8c0,0-1.4,0.1-2.2,0.2c-2.7,0.4-3.6,1.2-3.6,4.6v26.6 c0,3.6,2.3,3.8,5.5,4C252.6,190.6,257.1,183.7,257.1,172.5 M301,141.7c-0.3,1.2-1,1.6-2.3,1.6l-1.6,0h-24.9c-2.1,0-2.9-0.4-2.9-1.8 c0-0.9,0.7-1.7,1.6-1.7h1.3c0.4,0,0.9-0.4,1-0.8c0.2-0.5,0.2-0.8,0.2-2.5v-28.4c0-1.6-0.1-2-0.2-2.5c-0.1-0.6-0.6-0.9-1-0.9h-1.3 c-0.9,0-1.6-0.8-1.6-1.8c0-1.4,0.8-1.9,2.9-1.9h25.4c1.3,0,2,0.4,2.3,1.6l0.9,4.4c0.3,1.6-0.2,2.5-1.4,2.5c-0.6,0-1.2-0.2-1.6-1 c-0.1-0.1-0.3-0.6-0.6-1.4c-0.6-1.6-1.9-1.8-4.9-1.8h-6c-3.5,0-3.9,0.5-3.9,3.8v7.5c0,1.4,0.2,2,0.6,2.3c0.3,0.2,0.8,0.2,2.6,0.2h3 c2.7,0,3-0.2,3.2-1.5l0-0.4c0.2-1.1,0.8-1.6,1.7-1.6c1.3,0,1.8,0.8,1.8,3v5.3c0,2.2-0.4,3-1.8,3c-1,0-1.5-0.6-1.7-1.7l-0.1-0.4 c-0.2-1.3-0.6-1.5-3.2-1.5h-2.9c-1.8,0-2.3,0-2.6,0.2c-0.4,0.3-0.6,0.9-0.6,2.3v8.1c0,3.4,0.2,4.1,1.2,4.5c0.8,0.3,1.7,0.4,3.8,0.4 l6.3,0c2.3,0,3.9-0.7,4.7-2.4c0.4-0.7,0.5-1,0.5-1.2c0.4-0.8,1.1-1.2,1.7-1.2c1.2,0,1.7,0.9,1.4,2.5L301,141.7L301,141.7z M297.6,197.6c-1.8,0-3.3-1.5-3.3-3.3c0-1.8,1.5-3.3,3.3-3.3c1.8,0,3.3,1.5,3.3,3.3C300.9,196.1,299.4,197.6,297.6,197.6 M282.8,194.7c-2.3,0-4.9-0.3-6.7-0.9c-0.9-0.2-1-0.3-1.4-0.3c-0.5,0-0.8,0.1-1.4,0.6c-0.6,0.5-0.9,0.6-1.5,0.6 c-1.1,0-1.6-0.6-2-2.1l-1.6-6.4c-0.1-0.4-0.2-1-0.2-1.3c0-1.1,0.9-2,2-2c0.7,0,1.2,0.3,1.6,0.9l0.9,1.3c2.2,3.1,5.8,5,9.4,5 c4.1,0,6.9-2.3,6.9-5.7c0-1.7-0.7-3.2-2.1-4.8c-1.4-1.5-3.1-2.9-6.7-5.5c-6-4.2-6.6-4.6-8.6-6.9c-1.6-1.9-2.4-4.1-2.4-6.7 c0-6.2,4.7-10.2,11.7-10.2c1.8,0,3.6,0.2,5.5,0.6c0.2,0.1,0.7,0.2,1.6,0.4c0.3,0.1,0.6,0.1,0.9,0.1c0.4,0,0.9-0.2,1.5-0.6 c0.6-0.5,0.8-0.5,1.3-0.5c0.9,0,1.5,0.6,1.8,1.8l1.5,6.9c0.1,0.3,0.1,0.7,0.1,0.9c0,0.8-0.7,1.5-1.8,1.5c-0.7,0-1.1-0.3-1.7-1.1 c-1.4-2.2-1.7-2.4-3-3.4c-1.7-1.3-3.9-2-6-2c-2.9,0-4.8,1.7-4.8,4.3c0,0.9,0.2,1.9,0.7,2.6c0.6,1,1.7,2,2.9,2.9 c0.8,0.6,1.8,1.3,3.1,2.2c5,3.5,6.7,4.8,8.7,6.9c2.1,2.2,3.4,5.4,3.4,8.7C296.7,189.9,291.2,194.7,282.8,194.7 M266.8,211.1h-3.7 c-0.5,0-0.9,0.2-0.9,0.8l0,11.1c0,0.8-0.6,0.9-1.4,0.9c-0.8,0-1.4-0.1-1.4-0.8v-11.1c0-0.5-0.2-0.8-0.9-0.8h-3.7 c-0.6,0-0.8-0.6-0.8-1.1c0-0.5,0-1.6,0.8-1.6h11.9c0.5,0,0.9,0.3,0.9,1.3C267.6,210.6,267.4,211.1,266.8,211.1 M236,214.5h5.3 c0.6,0,0.8,0.6,0.8,1.4c0,0.7-0.2,1.3-0.7,1.3h-5.3c-0.4,0-0.8,0.3-0.8,0.8v2.2c0,0.5,0.3,0.8,0.7,0.8h9.1c0.6,0,0.8,0.4,0.8,1.4 c0,0.7-0.2,1.3-0.8,1.3h-11.7c-0.7,0-1-0.3-1-1.1v-13.1c0-0.6,0.2-1,0.9-1h11.7c0.7,0,0.8,0.5,0.8,1.3c0,0.8-0.1,1.4-0.9,1.4h-9.1 c-0.4,0-0.6,0.3-0.6,0.7v2.1C235.3,214.3,235.6,214.5,236,214.5 M226.4,191.8c0-1,0.6-1.8,1.5-1.8h1.3c0.4,0,0.9-0.3,1.1-0.8 c0.1-0.5,0.2-0.8,0.2-2.5v-28.3c0-1.7-0.1-2-0.2-2.5c-0.2-0.5-0.6-0.8-1.1-0.8h-1.3c-0.9,0-1.5-0.8-1.5-1.8c0-1.4,1-1.6,2.8-1.9 c1.9-0.3,7-1,15-1c7.9,0,12.8,1.7,16.7,5.7c3.7,3.8,5.8,9.5,5.8,16.4c0,7.7-2.6,14-7.3,17.8c-3.7,3-8.3,4.3-15.2,4.3 c-7.9,0-13.1-0.7-15-1C227.4,193.4,226.4,193.2,226.4,191.8 M205,194.7c-10.2,0-17.6-5.8-19.9-15.1c0-0.1-0.1-0.1-0.1-0.2 c-0.2-1-1.2-1.1-1.4,0c0,0,0,0.1,0,0.1c-2.4,9.5-9.8,15.2-20.2,15.2c-12.6,0-20.7-8.7-20.7-22c0-13.6,8.1-22.2,20.9-22.2 c10.5,0,17.9,5.8,20.2,15.4c0.2,1.1,1.2,1,1.4,0c0,0,0,0,0,0c2.3-9.5,9.7-15.3,20.1-15.3c12.7,0,20.9,8.6,20.9,21.9 C226.1,186,217.9,194.7,205,194.7 M222.6,223.8c-1.3,0-1.6-0.2-2-0.6l-4.9-5.2c-0.7-0.6-1.3-0.7-2.2-0.7c-0.5,0-0.9,0.5-0.9,1.1v4.4 c0,0.8-0.7,0.9-1.5,0.9c-0.8,0-1.3-0.2-1.3-0.9v-13.6c0-0.8,0.5-0.9,1.5-0.9c0.8,0,1.3,0.2,1.3,0.9v4.1c0,0.7,0.3,1,0.7,1 c1.2,0,1.4-0.3,1.9-0.6c0.5-0.4,5.5-5,5.5-5c0.6-0.5,1.3-0.5,1.9,0.1c0.5,0.5,0.7,1,0.2,1.6c-0.4,0.4-4.8,4.4-4.8,4.4 c-0.5,0.5-0.4,0.9,0,1.3c0,0,5.3,5.8,5.8,6.4C224.6,223.4,223.8,223.8,222.6,223.8 M195.7,218.9c0.1,0.2,2.3,3.3,2.6,3.8 c0.5,0.7,0,1.2-1.4,1.2c-0.8,0-1.4-0.1-1.7-0.7l-2.4-3.7c-0.3-0.4-0.7-0.7-1.2-0.7h-3.4c-0.4,0-0.8,0.3-0.8,0.7l0,3.7 c0,0.7-1.4,0.6-1.9,0.6c-0.6,0-0.9-0.2-0.9-0.9l0-14c0-0.4,0.3-0.6,0.7-0.6h8c3.1,0,5.4,2,5.4,5.2c0,2.8-2,3.7-2.8,4.4 C195.6,218.3,195.5,218.5,195.7,218.9 M173.1,223.8c-0.5,0-1.2-0.1-1.4-0.6l-1-2c-0.1-0.3-0.4-0.5-0.7-0.5h-6.3 c-0.4,0-0.8,0.3-1,0.9l-0.9,1.7c-0.2,0.5-1.1,0.6-1.6,0.6c-0.4,0-1.7,0-1.3-0.9l6.7-13.9c0.2-0.4,0.5-0.7,1.2-0.7 c0.6,0,1,0.2,1.2,0.7c0,0,6.4,13.6,6.6,14C175,223.7,173.6,223.8,173.1,223.8 M148.9,223.8c-0.4,0-1.1-0.2-1.1-0.7l-1.1-8.2 c-0.1-0.3-0.2-0.5-0.5-0.5c-0.2,0-0.3,0.1-0.5,0.3l-3.7,4.7c-0.2,0.3-0.4,0.4-0.7,0.4c-0.4,0-0.6-0.1-0.8-0.5l-3.4-4.5 c-0.1-0.2-0.3-0.2-0.5-0.2c-0.3,0-0.4,0.2-0.4,0.6l-1.1,7.9c-0.1,0.7-0.9,0.8-1.6,0.8c-0.5,0-1.2-0.2-1.2-0.8l1.5-13.3 c0.2-0.8,0.3-1.3,1.5-1.3c0.3,0,0.8,0.1,1.1,0.7l4.2,5.9c0.2,0.3,0.5,0.6,0.8,0.6c0.3,0,0.6-0.3,0.8-0.6l4.4-6 c0.3-0.4,0.7-0.6,1.2-0.6c0.5,0,0.9,0.1,1.1,1l1.5,13.6C150.7,223.8,149.4,223.8,148.9,223.8 M122.6,186.8c0,1.7,0,2,0.1,2.5 c0.3,0.5,0.8,0.8,1.4,0.8h1.4c1,0,1.7,0.8,1.7,1.8c0,1.4-0.8,1.8-3.1,1.8h-11.7c-2.2,0-2.9-0.4-2.9-1.8c0-1,0.8-1.8,1.6-1.8h1.3 c0.4,0,0.9-0.3,1.1-0.8c0.1-0.4,0.2-0.8,0.2-2.5v-28.4c0-1.6-0.1-2-0.3-2.5c-0.1-0.6-0.6-1-1-1h-1.3c-0.9,0-1.6-0.8-1.6-1.8 c0-1.4,0.8-1.9,2.9-1.9H140c1.3,0,2,0.4,2.3,1.6l0.9,4.4c0.3,1.6-0.2,2.5-1.4,2.5c-0.6,0-1.2-0.2-1.6-1c-0.1-0.1-0.3-0.6-0.6-1.4 c-0.6-1.6-1.9-1.8-4.9-1.8h-8.2c-3.5,0-3.9,0.5-3.9,3.8v7.6c0,1.4,0.2,2,0.6,2.3c0.3,0.2,0.8,0.2,2.6,0.2h5.3c2.7,0,3-0.2,3.2-1.5 l0-0.4c0.2-1.1,0.8-1.6,1.7-1.6c1.3,0,1.8,0.8,1.8,3v5.3c0,2.2-0.4,3-1.8,3c-0.9,0-1.5-0.6-1.7-1.7l-0.1-0.4 c-0.2-1.3-0.6-1.5-3.2-1.5h-5.2c-1.8,0-2.3,0-2.6,0.2c-0.4,0.3-0.6,0.9-0.6,2.3L122.6,186.8L122.6,186.8z M101.7,107.5 c-0.9-2.6-1.3-2.9-3.3-3.4c-1.4-0.2-1.8-0.7-1.8-1.7c0-1.1,0.7-1.6,2.1-1.6h13.1c1.4,0,2.1,0.6,2.1,1.7c0,1.1-0.6,1.5-2.3,1.6 c-1.4,0.1-2,0.6-2,1.6c0,0.4,0.1,0.9,0.2,1.4l0.5,1.5c0,0,7,19.9,8.1,23.1c0.2,0.5,0.8,0.5,1-0.1c1.2-3.5,4.6-13.3,4.7-13.7 c0.3-1.1,0.5-2.3,0.1-3.6c-0.1-0.5-2.3-6.8-2.3-6.8c-0.2-0.7-0.4-1.2-0.5-1.5c-0.4-0.9-0.9-1.3-2.4-1.7c-1.3-0.3-1.8-0.8-1.8-1.7 c0-1.2,0.7-1.9,2.2-1.9H132c1.4,0,2.1,0.6,2.1,1.7c0,1-0.6,1.5-2.1,1.7c-1.7,0.2-2.1,0.6-2.1,1.7c0,0.6,0.1,1.1,0.7,2.7 c0,0,6.2,19.5,7.1,22.5c0.2,0.6,0.7,0.4,0.9-0.1c1-3.1,7-23.6,7-23.6c0.2-0.6,0.2-1.1,0.2-1.5c0-1-0.7-1.5-2.2-1.7 c-1.4-0.1-2-0.8-2-1.8c0-1.3,0.7-1.8,2.4-1.8h22c2.1,0,2.8,0.4,2.8,1.8c0,1-0.7,1.8-1.6,1.8h-1.2c-0.5,0-1,0.4-1.2,0.8 c-0.1,0.5-0.2,0.9-0.2,2.5v8.2c0,2.9,0.3,3.2,2.6,3.2h8.6c1.3,0,1.9-0.2,2.2-0.6c0.3-0.4,0.3-0.6,0.3-3v-7.8c0-1.7,0-2-0.2-2.5 c-0.2-0.5-0.7-0.8-1.2-0.8h-1.2c-1,0-1.7-0.8-1.7-1.8c0-1.4,0.8-1.8,2.9-1.8h11.6c2.2,0,2.9,0.4,2.9,1.8c0,1-0.8,1.8-1.6,1.8h-1.3 c-0.4,0-0.9,0.4-1.1,0.8c-0.2,0.5-0.2,0.9-0.2,2.5v28.5c0,1.7,0,2,0.2,2.5c0.1,0.4,0.6,0.8,1.1,0.8h1.3c0.9,0,1.6,0.8,1.6,1.8 c0,1.4-0.7,1.8-2.9,1.8h-11.6c-2.2,0-2.9-0.4-2.9-1.8c0-0.9,0.8-1.8,1.6-1.8h1.2c0.4,0,0.9-0.3,1.2-0.8c0.2-0.5,0.2-0.9,0.2-2.5V127 c0-2.4,0-2.6-0.3-3c-0.3-0.4-1-0.6-2.2-0.6h-8.6c-2.4,0-2.6,0.2-2.6,3.2v9.7c0,1.7,0.1,2,0.2,2.5c0.2,0.4,0.7,0.8,1.2,0.8h1.2 c0.9,0,1.5,0.8,1.5,1.8c0,1.3-0.7,1.8-2.7,1.8h-11.6c-2.1,0-2.9-0.4-2.9-1.8c0-0.9,0.8-1.8,1.6-1.8h1.3c0.4,0,1-0.3,1.1-0.8 c0.2-0.5,0.2-0.8,0.2-2.5v-28.5c0-3.2-1.5-3.5-2.6-3.3c-1.1,0.2-1.8,0.9-2.5,3.1l-10.1,32.6c-0.9,3.1-1.8,4-3.7,4 c-1.9,0-2.9-0.8-3.6-3.2c0,0-5.2-15.6-5.4-16.2c-0.2-0.5-0.7-0.5-0.9,0c-0.1,0.5-5.8,16.2-5.8,16.2c-0.6,1.5-0.8,2-1.3,2.5 c-0.5,0.4-1.3,0.7-2.2,0.7c-1.8,0-2.7-0.8-3.6-3.2L101.7,107.5L101.7,107.5z M186,88.3c2.1-7.9,9.8-15.9,18.3-13.4 c7.2,2.1,6.7,8,11.9,9.9c1.9,0.7,1.7,2.6,0.1,2.9c-2.8,0.5-6.5-1.5-9.3-4c-3.3-3-8.5-2.8-11.1-0.9c-1.1,0.9-0.6,1.7,0.5,1.5 c2.4-0.5,6.5-0.7,9.6,2.9c3.1,3.4,8.8,6.5,13.8,3.2c1.4-0.9,2.3-2.8,3.7-2.4c1.5,0.4,1.5,2.6-0.4,5.2c-4.7,6-9.5,5.3-14.6,10.4 c-5.1,5-6.2,10.8-6.2,18c0,11.3,4.4,18.1,11.9,18.1c7.3,0,11.9-7.1,11.9-18.2c0-9.2-2.2-15.1-7.6-17.2c-2.6-1-2.2-3.6,1.2-4 c2.8-0.3,5.6,0.6,8.6,2.9c5.2,3.8,7.8,9.9,7.8,18.1c0,14.2-8.6,23.3-22,23.3c-13.1,0-21.7-9.1-21.7-23c0-8.9,3.4-15.8,9.2-19.7 c2.4-1.8,6.5-3.9,10.5-5.3c0.8-0.3,0.8-1.8-0.7-1.5c-1.8,0.4-5,0.6-7.7-0.5c-6-2.4-7.7-6.6-14.8-3.6C186.8,91.9,185.4,90.6,186,88.3 M239.7,100.9h11.7c2.3,0,3.1,0.5,3.1,1.9c0,1-0.8,1.8-1.7,1.8h-1.4c-0.6,0-1.2,0.3-1.3,0.8c-0.2,0.4-0.2,0.8-0.2,2.5v26.7 c0,2.8,0.1,3.4,0.9,3.9c0.7,0.5,1.6,0.6,4.2,0.6h3.6c2.3,0,3.9-0.7,4.7-2.4c0.4-0.8,0.5-1,0.5-1.2c0.4-0.8,1.1-1.2,1.7-1.2 c1.2,0,1.7,0.9,1.4,2.5l-1,4.9c-0.3,1.2-1,1.6-2.3,1.6h-23.9c-2.1,0-2.8-0.4-2.8-1.8c0-0.9,0.7-1.7,1.6-1.7h1.2 c0.4,0,0.9-0.4,1.1-0.8c0.2-0.5,0.2-0.8,0.2-2.4v-28.7c0-1.7-0.1-2-0.2-2.5c-0.1-0.5-0.6-0.8-1.1-0.8h-1.2c-1,0-1.7-0.8-1.7-1.8 C236.7,101.3,237.5,100.9,239.7,100.9 M200,19C127.7,19,69,77.7,69,150s58.7,131,131,131c72.4,0,131-58.7,131-131S272.4,19,200,19 M298.5,193.4c0-0.4-0.4-0.5-0.9-0.5H297v1.1h0.4C298,193.9,298.5,193.9,298.5,193.4 M298.5,196.1l-1.1-1.6H297v1.6h-0.7v-3.9h1.5 c0.9,0,1.3,0.4,1.3,1.2c0,0.8-0.4,1.1-1,1.1l1.1,1.6H298.5L298.5,196.1z M297.6,191.6c-1.5,0-2.6,1.1-2.6,2.7c0,1.5,1.1,2.7,2.6,2.7 c1.5,0,2.6-1.1,2.6-2.7C300.2,192.7,299.1,191.6,297.6,191.6 M169.1,217.7c-0.1-0.2-1.7-3.4-1.9-3.8c-0.2-0.4-0.6-0.4-0.8,0 c-0.2,0.4-1.7,3.5-1.8,3.8c-0.2,0.4,0,0.6,0.4,0.6h3.7C169,218.2,169.2,218,169.1,217.7 M193.1,211.1h-4.7c-0.5,0-1,0.2-1,0.8v3.4 c0,0.5,0.5,0.9,1,0.9h4.7c1.6,0,2.9-0.8,2.9-2.5C196,211.9,194.7,211.1,193.1,211.1 M163.4,155.1c-7,0-11.3,6.7-11.3,17.7 c0,10.8,4.2,17.3,11.4,17.3c7,0,11.4-6.8,11.4-17.4C174.9,161.9,170.4,155.1,163.4,155.1 M205,155.1c-7,0-11.3,6.7-11.3,17.7 c0,10.8,4.3,17.3,11.4,17.3c7,0,11.4-6.8,11.4-17.4C216.5,161.9,212.1,155.1,205,155.1 M245.1,154.7c0,0-1.4,0.1-2.2,0.2 c-2.7,0.4-3.6,1.2-3.6,4.6v26.6c0,3.6,2.3,3.8,5.5,4c7.8,0.4,12.3-6.5,12.3-17.7C257.1,161.3,252.6,154.7,245.1,154.7 M298.5,193.4 c0-0.4-0.4-0.5-0.9-0.5H297v1.1h0.4C298,193.9,298.5,193.9,298.5,193.4 M298.5,196.1l-1.1-1.6H297v1.6h-0.7v-3.9h1.5 c0.9,0,1.3,0.4,1.3,1.2c0,0.8-0.4,1.1-1,1.1l1.1,1.6H298.5L298.5,196.1z M297.6,191.6c-1.5,0-2.6,1.1-2.6,2.7c0,1.5,1.1,2.7,2.6,2.7 c1.5,0,2.6-1.1,2.6-2.7C300.2,192.7,299.1,191.6,297.6,191.6 M245.1,154.7c0,0-1.4,0.1-2.2,0.2c-2.7,0.4-3.6,1.2-3.6,4.6v26.6 c0,3.6,2.3,3.8,5.5,4c7.8,0.4,12.3-6.5,12.3-17.7C257.1,161.3,252.6,154.7,245.1,154.7 M205,155.1c-7,0-11.3,6.7-11.3,17.7 c0,10.8,4.3,17.3,11.4,17.3c7,0,11.4-6.8,11.4-17.4C216.5,161.9,212.1,155.1,205,155.1 M193.1,211.1h-4.7c-0.5,0-1,0.2-1,0.8v3.4 c0,0.5,0.5,0.9,1,0.9h4.7c1.6,0,2.9-0.8,2.9-2.5S194.7,211.1,193.1,211.1 M163.4,155.1c-7,0-11.3,6.7-11.3,17.7 c0,10.8,4.2,17.3,11.4,17.3c7,0,11.4-6.8,11.4-17.4C174.9,161.9,170.4,155.1,163.4,155.1 M169.1,217.7c-0.1-0.2-1.7-3.4-1.9-3.8 c-0.2-0.4-0.6-0.4-0.8,0c-0.2,0.4-1.7,3.5-1.8,3.8c-0.2,0.4,0,0.6,0.4,0.6h3.7C169,218.2,169.2,218,169.1,217.7 M169.1,217.7 c-0.1-0.2-1.7-3.4-1.9-3.8c-0.2-0.4-0.6-0.4-0.8,0c-0.2,0.4-1.7,3.5-1.8,3.8c-0.2,0.4,0,0.6,0.4,0.6h3.7 C169,218.2,169.2,218,169.1,217.7 M193.1,211.1h-4.7c-0.5,0-1,0.2-1,0.8v3.4c0,0.5,0.5,0.9,1,0.9h4.7c1.6,0,2.9-0.8,2.9-2.5 S194.7,211.1,193.1,211.1 M163.4,155.1c-7,0-11.3,6.7-11.3,17.7c0,10.8,4.2,17.3,11.4,17.3c7,0,11.4-6.8,11.4-17.4 C174.9,161.9,170.4,155.1,163.4,155.1 M205,155.1c-7,0-11.3,6.7-11.3,17.7c0,10.8,4.3,17.3,11.4,17.3c7,0,11.4-6.8,11.4-17.4 C216.5,161.9,212.1,155.1,205,155.1 M245.1,154.7c0,0-1.4,0.1-2.2,0.2c-2.7,0.4-3.6,1.2-3.6,4.6v26.6c0,3.6,2.3,3.8,5.5,4 c7.8,0.4,12.3-6.5,12.3-17.7C257.1,161.3,252.6,154.7,245.1,154.7 M245.1,154.7c0,0-1.4,0.1-2.2,0.2c-2.7,0.4-3.6,1.2-3.6,4.6v26.6 c0,3.6,2.3,3.8,5.5,4c7.8,0.4,12.3-6.5,12.3-17.7C257.1,161.3,252.6,154.7,245.1,154.7 M205,155.1c-7,0-11.3,6.7-11.3,17.7 c0,10.8,4.3,17.3,11.4,17.3c7,0,11.4-6.8,11.4-17.4C216.5,161.9,212.1,155.1,205,155.1 M193.1,211.1h-4.7c-0.5,0-1,0.2-1,0.8v3.4 c0,0.5,0.5,0.9,1,0.9h4.7c1.6,0,2.9-0.8,2.9-2.5S194.7,211.1,193.1,211.1 M163.4,155.1c-7,0-11.3,6.7-11.3,17.7 c0,10.8,4.2,17.3,11.4,17.3c7,0,11.4-6.8,11.4-17.4C174.9,161.9,170.4,155.1,163.4,155.1 M169.1,217.7c-0.1-0.2-1.7-3.4-1.9-3.8 c-0.2-0.4-0.6-0.4-0.8,0c-0.2,0.4-1.7,3.5-1.8,3.8c-0.2,0.4,0,0.6,0.4,0.6h3.7C169,218.2,169.2,218,169.1,217.7 M169.1,217.7 c-0.1-0.2-1.7-3.4-1.9-3.8c-0.2-0.4-0.6-0.4-0.8,0c-0.2,0.4-1.7,3.5-1.8,3.8c-0.2,0.4,0,0.6,0.4,0.6h3.7 C169,218.2,169.2,218,169.1,217.7 M193.1,211.1h-4.7c-0.5,0-1,0.2-1,0.8v3.4c0,0.5,0.5,0.9,1,0.9h4.7c1.6,0,2.9-0.8,2.9-2.5 S194.7,211.1,193.1,211.1 M163.4,155.1c-7,0-11.3,6.7-11.3,17.7c0,10.8,4.2,17.3,11.4,17.3c7,0,11.4-6.8,11.4-17.4 C174.9,161.9,170.4,155.1,163.4,155.1 M205,155.1c-7,0-11.3,6.7-11.3,17.7c0,10.8,4.3,17.3,11.4,17.3c7,0,11.4-6.8,11.4-17.4 C216.5,161.9,212.1,155.1,205,155.1 M245.1,154.7c0,0-1.4,0.1-2.2,0.2c-2.7,0.4-3.6,1.2-3.6,4.6v26.6c0,3.6,2.3,3.8,5.5,4 c7.8,0.4,12.3-6.5,12.3-17.7C257.1,161.3,252.6,154.7,245.1,154.7 M245.1,154.7c0,0-1.4,0.1-2.2,0.2c-2.7,0.4-3.6,1.2-3.6,4.6v26.6 c0,3.6,2.3,3.8,5.5,4c7.8,0.4,12.3-6.5,12.3-17.7C257.1,161.3,252.6,154.7,245.1,154.7 M205,155.1c-7,0-11.3,6.7-11.3,17.7 c0,10.8,4.3,17.3,11.4,17.3c7,0,11.4-6.8,11.4-17.4C216.5,161.9,212.1,155.1,205,155.1 M193.1,211.1h-4.7c-0.5,0-1,0.2-1,0.8v3.4 c0,0.5,0.5,0.9,1,0.9h4.7c1.6,0,2.9-0.8,2.9-2.5S194.7,211.1,193.1,211.1 M163.4,155.1c-7,0-11.3,6.7-11.3,17.7 c0,10.8,4.2,17.3,11.4,17.3c7,0,11.4-6.8,11.4-17.4C174.9,161.9,170.4,155.1,163.4,155.1 M169.1,217.7c-0.1-0.2-1.7-3.4-1.9-3.8 c-0.2-0.4-0.6-0.4-0.8,0c-0.2,0.4-1.7,3.5-1.8,3.8c-0.2,0.4,0,0.6,0.4,0.6h3.7C169,218.2,169.2,218,169.1,217.7 M163.4,155.1 c-7,0-11.3,6.7-11.3,17.7c0,10.8,4.2,17.3,11.4,17.3c7,0,11.4-6.8,11.4-17.4C174.9,161.9,170.4,155.1,163.4,155.1 M205,155.1 c-7,0-11.3,6.7-11.3,17.7c0,10.8,4.3,17.3,11.4,17.3c7,0,11.4-6.8,11.4-17.4C216.5,161.9,212.1,155.1,205,155.1 M245.1,154.7 c0,0-1.4,0.1-2.2,0.2c-2.7,0.4-3.6,1.2-3.6,4.6v26.6c0,3.6,2.3,3.8,5.5,4c7.8,0.4,12.3-6.5,12.3-17.7 C257.1,161.3,252.6,154.7,245.1,154.7 M245.1,154.7c0,0-1.4,0.1-2.2,0.2c-2.7,0.4-3.6,1.2-3.6,4.6v26.6c0,3.6,2.3,3.8,5.5,4 c7.8,0.4,12.3-6.5,12.3-17.7C257.1,161.3,252.6,154.7,245.1,154.7 M205,155.1c-7,0-11.3,6.7-11.3,17.7c0,10.8,4.3,17.3,11.4,17.3 c7,0,11.4-6.8,11.4-17.4C216.5,161.9,212.1,155.1,205,155.1 M163.4,155.1c-7,0-11.3,6.7-11.3,17.7c0,10.8,4.2,17.3,11.4,17.3 c7,0,11.4-6.8,11.4-17.4C174.9,161.9,170.4,155.1,163.4,155.1 M163.4,155.1c-7,0-11.3,6.7-11.3,17.7c0,10.8,4.2,17.3,11.4,17.3 c7,0,11.4-6.8,11.4-17.4C174.9,161.9,170.4,155.1,163.4,155.1 M205,155.1c-7,0-11.3,6.7-11.3,17.7c0,10.8,4.3,17.3,11.4,17.3 c7,0,11.4-6.8,11.4-17.4C216.5,161.9,212.1,155.1,205,155.1 M245.1,154.7c0,0-1.4,0.1-2.2,0.2c-2.7,0.4-3.6,1.2-3.6,4.6v26.6 c0,3.6,2.3,3.8,5.5,4c7.8,0.4,12.3-6.5,12.3-17.7C257.1,161.3,252.6,154.7,245.1,154.7 M245.1,154.7c0,0-1.4,0.1-2.2,0.2 c-2.7,0.4-3.6,1.2-3.6,4.6v26.6c0,3.6,2.3,3.8,5.5,4c7.8,0.4,12.3-6.5,12.3-17.7C257.1,161.3,252.6,154.7,245.1,154.7 M205,155.1 c-7,0-11.3,6.7-11.3,17.7c0,10.8,4.3,17.3,11.4,17.3c7,0,11.4-6.8,11.4-17.4C216.5,161.9,212.1,155.1,205,155.1 M163.4,155.1 c-7,0-11.3,6.7-11.3,17.7c0,10.8,4.2,17.3,11.4,17.3c7,0,11.4-6.8,11.4-17.4C174.9,161.9,170.4,155.1,163.4,155.1"></path> </svg> 