<?xml version="1.0" encoding="iso-8859-1"?>
<!-- Generator: Adobe Illustrator 16.0.0, SVG Export Plug-In . SVG Version: 6.00 Build 0)  -->
<!DOCTYPE svg PUBLIC "-//W3C//DTD SVG 1.1//EN" "http://www.w3.org/Graphics/SVG/1.1/DTD/svg11.dtd">
<svg version="1.1" id="Capa_1" xmlns="http://www.w3.org/2000/svg" xmlns:xlink="http://www.w3.org/1999/xlink" x="0px" y="0px"
	 width="43.74px" height="43.741px" viewBox="0 0 43.74 43.741" style="enable-background:new 0 0 43.74 43.741;"
	 xml:space="preserve">
<g>
	<g>
		<path d="M20.682,0.595c-0.003,0.007-0.007,0.014-0.01,0.02c-0.203-0.016-0.449-0.02-0.733-0.005
			C2.004,1.552-0.743,34.84,14.521,42.017c3.689,1.734,7.783,2.158,11.495,1.28c0.146-0.006,0.321-0.028,0.546-0.092
			c0.221-0.062,0.381-0.125,0.488-0.185c3.758-1.165,7.025-3.733,8.912-7.76c3.688-7.877,5.154-21.886-1.064-28.832
			c-3.47-3.133-7.92-5.355-12.472-6.393C21.921-0.079,20.942,0.074,20.682,0.595z M18.418,1.612
			c-0.517,0.292-1.152,0.782-1.678,1.297c-2.291,2.243-4.576,4.483-6.953,6.81c-0.224,0.219-0.433,0.425-0.624,0.612
			C11.062,5.987,14.086,2.312,18.418,1.612z M9.125,10.425c0.188-0.18,0.396-0.38,0.62-0.597c1.607-1.553,2.411-2.311,1.343-1.211
			c-0.266,0.256-0.753,0.725-1.424,1.373c-0.212,0.205-0.434,0.446-0.652,0.704C9.049,10.604,9.086,10.514,9.125,10.425z
			 M7.678,30.842c0.155-0.154,0.31-0.31,0.467-0.465c0.148-0.162,0.297-0.325,0.445-0.487c0.246-0.271-0.039-0.021-0.636,0.557
			c-0.108,0.104-0.206,0.2-0.303,0.297c-0.135-0.492-0.254-0.992-0.359-1.498c0.204-0.14,0.426-0.32,0.657-0.549
			c0.642-0.633,1.283-1.266,1.925-1.896c0.787-0.775,1.392-1.826,1.369-2.349c-0.023-0.521-0.655-0.299-1.424,0.494
			c-0.725,0.748-1.449,1.495-2.173,2.243c-0.22,0.228-0.42,0.468-0.598,0.707c-0.115-0.741-0.205-1.487-0.267-2.237
			c0.192-0.101,0.402-0.258,0.622-0.483c0.824-0.849,1.632-1.68,2.422-2.491c0.771-0.792,1.409-1.981,1.44-2.656
			c0.018-0.404,0.04-0.811,0.069-1.22c0.003-0.051,0.006-0.104,0.01-0.158c0.007-0.088-0.627,0.471-1.414,1.246
			c-0.868,0.854-1.739,1.713-2.615,2.576c-0.241,0.237-0.464,0.521-0.662,0.819c-0.01-0.461-0.014-0.92-0.01-1.375
			c0.007-0.894,0.073-1.873,0.197-2.902c0.188-0.178,0.396-0.376,0.619-0.59c1.028-0.988,2.057-1.979,3.086-2.983
			c0.296-0.299,0.594-0.598,0.891-0.896c0.38-0.382,0.771-0.934,1.007-1.384c-0.279,1.326-0.358,2.712-0.405,4.026
			c-0.133,3.681,0.055,7.4,0.053,11.085c0,0.67,0.005,1.4,0.04,2.152c-0.148-0.311-0.827,0.009-1.578,0.757
			c-0.463,0.46-0.921,0.916-1.377,1.37c-0.247,0.246-0.462,0.504-0.641,0.756C8.197,32.511,7.913,31.688,7.678,30.842z
			 M11.877,38.302c-1.173-1.146-2.1-2.459-2.826-3.889c0.232-0.157,0.481-0.365,0.732-0.625c0.393-0.404,0.786-0.811,1.179-1.215
			c0.639-0.656,1.105-1.415,1.187-1.872c0.078,1.388,0.275,2.826,0.731,4.11c-0.278,0.28-0.273,0.292,0.01,0.031
			c0.216,0.602,0.5,1.157,0.849,1.663c-0.225,0.135-0.464,0.312-0.706,0.536c-0.144,0.135-0.289,0.269-0.433,0.403
			C12.296,37.73,12.05,38.027,11.877,38.302z M14.454,40.274c-0.573-0.343-1.111-0.711-1.607-1.11
			c0.304-0.163,0.629-0.394,0.938-0.678c0.024-0.021,0.047-0.043,0.071-0.064c0.311-0.286,0.565-0.594,0.749-0.885
			c0.484,0.457,1.02,0.828,1.585,1.125c-0.266,0.229-0.62,0.547-1.004,0.901C14.907,39.821,14.659,40.063,14.454,40.274z
			 M26.374,20.652c-0.22,4.399-0.08,8.79-1.201,13.091c-1.052,4.035-5.015,6.329-8.672,3.265c-1.942-1.627-2.223-4.854-2.411-7.169
			c-0.42-5.153-0.534-10.973,0.106-16.094c0.368-2.95,1.975-5.19,4.331-6.929c0.85-0.627,1.833-0.904,2.661-1.354
			c0.097-0.053,0.177-0.108,0.255-0.164c0.092,0.273,0.251,0.581,0.476,0.901C25.084,10.711,26.52,14.767,26.374,20.652z
			 M24.945,7.374c0.273-0.272,0.377-0.37,0.31-0.296c-0.103,0.116-0.2,0.224-0.292,0.325C24.958,7.394,24.951,7.384,24.945,7.374z
			 M33.085,7.121c4.64,5.181,4.21,13.465,3.303,19.864c-0.417,2.942-1.207,5.838-2.341,8.583c-2.37,5.738-7.82,7.701-13.204,6.951
			c0.024-0.022,0.052-0.04,0.075-0.063c0.54-0.542,0.739-1.086,0.444-1.223c-0.177-0.081-0.353-0.166-0.528-0.258
			c-0.02-0.01-0.039-0.021-0.057-0.031c-0.031-0.018-0.57,0.445-1.199,1.038c-0.097,0.091-0.176,0.17-0.261,0.254
			c-1.513-0.356-2.997-0.912-4.38-1.667c-0.098-0.054-0.184-0.116-0.279-0.171c0.218-0.199,0.466-0.438,0.726-0.7
			c0.369-0.374,0.696-0.718,0.928-0.972c2.484,1.247,5.555,0.99,7.889-0.648c0,0.114,0.074,0.197,0.228,0.224
			c0.31,0.051,1.192-0.561,1.974-1.342c0.731-0.732,1.469-1.472,2.217-2.22c0.688-0.7,1.373-1.4,2.06-2.104
			c0.772-0.79,1.435-1.612,1.474-1.838c0.041-0.227-0.592,0.192-1.41,0.936c-1.551,1.409-3.025,2.753-4.379,3.989
			c0.938-1.599,1.414-3.589,1.654-5.684c0.123-0.113,0.25-0.231,0.383-0.358c0.961-0.91,1.905-1.805,2.832-2.685
			c0.801-0.761,1.455-1.459,1.459-1.56c0.004-0.102-0.633,0.442-1.422,1.214c-0.957,0.937-1.912,1.867-2.859,2.794
			c-0.129,0.124-0.25,0.245-0.367,0.362c0.169-1.586,0.212-3.218,0.219-4.782c0.182-0.105,0.385-0.255,0.602-0.456
			c0.832-0.771,1.662-1.542,2.494-2.313c0.809-0.751,1.471-1.616,1.484-1.931c0.008-0.2,0.018-0.391,0.029-0.569
			c0.008-0.197,0.014-0.391,0.019-0.58c0.009-0.321-0.644,0.026-1.454,0.777c-0.835,0.775-1.671,1.551-2.507,2.327
			c-0.239,0.224-0.465,0.479-0.667,0.746c-0.001-0.933,0.004-1.811,0.035-2.609c0.206-0.175,0.439-0.383,0.693-0.62
			c0.201-0.189,0.401-0.377,0.603-0.565c0.806-0.755,1.381-1.239,2.052-1.848c0.672-0.609,1.199-1.357,1.176-1.666
			c-0.025-0.309-0.688,0.071-1.482,0.84c-1.214,1.174-1.301,1.208-2.332,2.196c-0.26,0.249-0.5,0.494-0.71,0.72
			c0.004-1.595-0.118-3.07-0.368-4.456c0.247-0.185,0.551-0.455,0.88-0.793c0.552-0.564,1.099-1.126,1.644-1.685
			c0.772-0.79,1.351-1.559,1.287-1.717c-0.064-0.157-0.765,0.335-1.56,1.103c-0.907,0.877-1.272,1.238-1.485,1.455
			c-0.347,0.355-0.656,0.714-0.893,1.025c-0.296-1.402-0.727-2.732-1.289-4.02c0.003-0.002,0.005-0.004,0.008-0.007
			c0.594-0.656,1.176-1.312,1.758-1.967c0.734-0.825,1.123-1.803,0.86-2.177c-0.264-0.375-1.11-0.031-1.881,0.76
			c-0.237,0.243-0.476,0.487-0.713,0.73c-0.341,0.35-0.604,0.741-0.777,1.11c-0.241-0.457-0.485-0.915-0.761-1.37
			c0.236-0.234,0.523-0.525,0.836-0.847c0.216-0.223,0.43-0.442,0.641-0.66c0.771-0.792,1.237-1.64,1.043-1.895
			C27.33,3.808,27.1,3.745,27.012,3.919c-0.087,0.175-0.492,0.456-0.896,0.645c-0.404,0.188-1.153,0.743-1.68,1.227
			c-0.113,0.104-0.203,0.22-0.287,0.336c-0.496-0.736-1.021-1.477-1.603-2.234c-0.327-0.426-1.671,0.116-1.863,0.499
			C20.212,5.331,18,6.061,17.024,6.667c-1.225,0.76-2.223,1.834-3.082,2.973c-0.663,0.878-1.078,1.878-1.354,2.928
			c-0.135-0.034-0.529,0.25-1.072,0.799c-1.341,1.354-2.68,2.708-4.019,4.063c-0.182,0.187-0.355,0.372-0.515,0.552
			c0.238-1.543,0.609-3.17,1.115-4.777c0.124-0.094,0.261-0.21,0.417-0.369c3.393-3.443,6.748-6.825,10.064-10.15
			c0.506-0.507,0.771-0.944,0.762-1.174c0.444-0.027,0.898-0.033,1.368,0.003c0.396,0.03,1.061-0.073,1.408-0.388
			c0.185,0.076,0.411,0.155,0.67,0.234C26.576,2.514,30.152,4.472,33.085,7.121z"/>
		<path d="M29.939,15.283c-0.774,0.786-0.74,0.821,0.074,0.075c0.317-0.29,0.635-0.581,0.953-0.872
			c0.814-0.745,1.46-1.423,1.441-1.514c-0.019-0.09-0.66,0.477-1.437,1.264C30.628,14.585,30.283,14.934,29.939,15.283z"/>
	</g>
</g>
<g>
</g>
<g>
</g>
<g>
</g>
<g>
</g>
<g>
</g>
<g>
</g>
<g>
</g>
<g>
</g>
<g>
</g>
<g>
</g>
<g>
</g>
<g>
</g>
<g>
</g>
<g>
</g>
<g>
</g>
</svg>
