<?xml version="1.0" standalone="no"?>
<!DOCTYPE svg PUBLIC "-//W3C//DTD SVG 20010904//EN"
 "http://www.w3.org/TR/2001/REC-SVG-20010904/DTD/svg10.dtd">
<svg version="1.0" xmlns="http://www.w3.org/2000/svg"
 width="512.000000pt" height="512.000000pt" viewBox="0 0 512.000000 512.000000"
 preserveAspectRatio="xMidYMid meet">
<metadata>
Created by potrace 1.10, written by Peter Selinger 2001-2011
</metadata>
<g transform="translate(0.000000,512.000000) scale(0.100000,-0.100000)"
fill="#dc143c" stroke="none">
<path d="M872 4752 c2 -4 59 -97 127 -207 69 -110 176 -283 239 -385 63 -102
131 -212 152 -245 21 -33 90 -145 155 -250 65 -104 146 -235 180 -290 200
-321 245 -396 245 -405 0 -5 -270 -415 -600 -910 l-600 -900 258 0 257 0 31
53 c17 28 53 88 81 132 27 44 161 260 298 480 136 220 284 459 328 530 45 72
108 182 140 245 32 63 62 116 65 117 4 2 24 -35 45 -81 21 -46 226 -396 456
-778 l416 -693 253 -3 c138 -1 252 1 252 4 0 4 -49 84 -109 178 -59 94 -205
324 -323 511 -118 187 -286 453 -373 590 -281 444 -328 520 -328 530 0 8 177
294 288 465 18 27 438 689 596 940 16 25 76 119 133 210 l105 165 -236 3
c-183 2 -239 -1 -245 -10 -66 -107 -187 -303 -208 -338 -29 -48 -209 -343
-323 -530 -197 -322 -302 -499 -335 -566 -20 -41 -39 -74 -42 -74 -3 0 -31 51
-62 113 -32 61 -108 200 -171 307 -62 107 -212 364 -331 570 -120 206 -239
410 -263 453 l-46 77 -254 0 c-140 0 -253 -3 -251 -8z"/>
</g>
</svg>
