<?xml version="1.0" standalone="no"?>
<!DOCTYPE svg PUBLIC "-//W3C//DTD SVG 20010904//EN"
 "http://www.w3.org/TR/2001/REC-SVG-20010904/DTD/svg10.dtd">
<svg version="1.0" xmlns="http://www.w3.org/2000/svg"
 width="1536.000000pt" height="1536.000000pt" viewBox="0 0 1536.000000 1536.000000"
 preserveAspectRatio="xMidYMid meet">
<metadata>
Created by potrace 1.10, written by Peter Selinger 2001-2011
</metadata>
<g transform="translate(0.000000,1536.000000) scale(0.100000,-0.100000)"
fill="#dc143c" stroke="none">
<path d="M2600 14258 c0 -6 24 -48 53 -92 30 -45 80 -125 113 -179 32 -54 66
-109 74 -122 65 -102 110 -174 163 -261 34 -55 81 -130 103 -165 53 -82 154
-249 154 -254 0 -2 19 -32 43 -67 23 -35 80 -126 127 -203 46 -77 87 -142 90
-145 4 -3 50 -77 104 -165 158 -260 357 -583 463 -750 21 -33 41 -66 45 -75 5
-8 30 -49 57 -90 27 -41 69 -109 92 -150 24 -41 75 -123 114 -182 38 -59 106
-166 150 -238 44 -72 128 -209 186 -303 59 -95 153 -246 208 -337 199 -322
197 -320 301 -484 8 -14 55 -89 103 -168 48 -78 133 -215 189 -303 55 -88 108
-174 117 -190 9 -17 37 -62 62 -100 83 -127 199 -322 199 -336 0 -13 -93 -158
-200 -314 -23 -33 -83 -123 -134 -200 -51 -77 -125 -189 -166 -250 -40 -60
-122 -184 -183 -275 -60 -91 -135 -203 -167 -250 -32 -47 -147 -220 -256 -385
-109 -165 -202 -304 -206 -310 -5 -5 -92 -136 -193 -290 -101 -154 -192 -291
-202 -305 -10 -14 -104 -155 -210 -315 -106 -159 -224 -337 -264 -395 -39 -58
-103 -154 -142 -214 -40 -60 -119 -179 -177 -266 -58 -86 -132 -197 -164 -246
-33 -49 -256 -385 -497 -746 -240 -361 -435 -659 -431 -662 8 -9 1505 -7 1517
2 16 10 117 172 351 557 53 88 107 174 119 190 12 17 61 95 109 175 108 178
238 388 305 495 50 79 174 279 287 465 32 52 88 142 124 200 36 58 113 180
171 273 57 92 111 178 119 191 8 13 28 45 44 72 70 117 171 279 177 284 3 3
28 43 55 90 26 47 69 116 94 155 25 38 98 155 162 260 64 104 150 244 191 310
41 66 107 172 147 235 59 92 290 534 290 554 0 3 16 39 36 81 30 63 39 75 60
75 19 0 28 -8 40 -37 9 -21 24 -56 33 -78 10 -22 31 -69 47 -105 36 -80 159
-325 182 -362 64 -101 402 -668 402 -673 0 -3 11 -21 24 -38 13 -18 101 -162
196 -322 95 -159 210 -351 255 -425 67 -111 219 -363 532 -885 86 -143 238
-394 303 -503 93 -153 122 -201 195 -327 31 -55 67 -113 80 -130 12 -16 59
-95 105 -175 45 -80 92 -158 104 -175 25 -36 25 -36 101 -166 32 -57 83 -141
112 -186 l53 -83 749 0 c462 0 752 4 756 9 3 6 -16 43 -42 83 -26 40 -98 154
-160 253 -62 99 -117 187 -123 195 -28 40 -110 172 -110 176 0 3 -13 24 -29
47 -53 77 -255 394 -262 412 -2 6 -30 51 -62 100 -103 160 -261 408 -315 495
-29 47 -75 119 -102 160 -27 41 -81 127 -120 190 -39 63 -88 142 -110 175 -21
33 -71 112 -110 175 -40 63 -132 210 -206 325 -74 116 -159 251 -190 300 -30
50 -77 124 -104 165 -26 41 -74 118 -106 170 -32 52 -84 133 -115 180 -31 47
-89 139 -130 205 -40 66 -91 147 -114 180 -22 33 -71 110 -107 170 -36 61 -86
139 -110 175 -24 36 -63 98 -88 138 -25 41 -85 136 -135 213 -49 76 -118 185
-153 242 -35 56 -112 179 -172 272 -60 94 -118 187 -130 207 l-20 36 59 89
c32 48 82 128 112 176 30 48 61 99 69 112 28 45 158 249 239 375 78 120 128
200 262 415 34 55 94 150 134 210 39 61 116 181 170 268 97 154 128 202 240
377 30 47 79 126 110 175 31 50 82 131 114 180 33 50 85 133 117 185 32 52 88
140 124 195 61 93 170 264 330 521 36 57 86 136 112 176 26 40 75 118 109 173
34 55 83 132 109 171 53 78 222 347 340 537 42 67 94 149 116 182 22 33 82
125 131 205 50 80 111 175 135 212 23 37 75 118 113 179 39 62 87 137 107 168
20 30 35 58 32 63 -6 10 -1405 10 -1420 0 -8 -6 -119 -180 -159 -250 -18 -32
-110 -184 -125 -207 -8 -12 -60 -96 -114 -186 -54 -90 -119 -194 -142 -231
-24 -37 -55 -86 -68 -110 -20 -37 -105 -176 -308 -508 -26 -41 -97 -158 -159
-260 -61 -102 -126 -207 -144 -235 -17 -27 -52 -83 -76 -124 -24 -41 -53 -89
-64 -107 -11 -18 -74 -121 -140 -229 -66 -108 -128 -208 -137 -223 -9 -15 -30
-49 -46 -77 -16 -27 -48 -81 -72 -120 -25 -38 -99 -160 -166 -270 -68 -110
-176 -287 -241 -393 -141 -230 -129 -210 -177 -297 -22 -38 -71 -124 -110
-189 -39 -66 -96 -172 -126 -235 -119 -249 -158 -311 -187 -293 -10 6 -113
203 -113 216 0 10 -91 199 -114 234 -13 20 -42 73 -66 117 -23 44 -58 109 -77
145 -20 36 -66 117 -103 180 -101 172 -298 510 -370 635 -35 61 -70 121 -79
135 -20 32 -45 76 -105 186 -27 49 -53 91 -57 94 -3 3 -16 23 -28 45 -12 22
-26 47 -31 55 -6 8 -39 67 -75 130 -64 113 -169 295 -334 573 -46 78 -97 167
-113 197 -17 30 -67 118 -113 195 -45 77 -123 210 -172 295 -96 164 -241 413
-258 441 -5 10 -41 72 -80 140 -147 256 -261 453 -292 502 l-23 37 -760 0
c-578 0 -760 -3 -760 -12z"/>
</g>
</svg>
