<svg id="time" enable-background="new 0 0 300 300" height="512" viewBox="0 0 300 300" width="512" xmlns="http://www.w3.org/2000/svg" xmlns:xlink="http://www.w3.org/1999/xlink"><linearGradient id="SVGID_1_" gradientUnits="userSpaceOnUse" x1="59.858" x2="234.238" y1="234.021" y2="59.641"><stop offset="0" stop-color="#107eff"/><stop offset="1" stop-color="#8f16ff"/></linearGradient><g><path d="m197.537 48v-8c0-2.209 1.791-4 4-4s4 1.791 4 4v8c0 2.209-1.791 4-4 4s-4-1.791-4-4zm4 12c-2.209 0-4 1.791-4 4v8c0 2.209 1.791 4 4 4s4-1.791 4-4v-8c0-2.209-1.791-4-4-4zm-16 0h8c2.209 0 4-1.791 4-4s-1.791-4-4-4h-8c-2.209 0-4 1.791-4 4s1.791 4 4 4zm24 0h8c2.209 0 4-1.791 4-4s-1.791-4-4-4h-8c-2.209 0-4 1.791-4 4s1.791 4 4 4zm39.236 15.948c0-2.362-1.915-4.277-4.276-4.277s-4.276 1.915-4.276 4.277 1.915 4.276 4.276 4.276 4.276-1.915 4.276-4.276zm17.69 50.396c0 6.805-5.535 12.34-12.338 12.34-6.805 0-12.34-5.535-12.34-12.34 0-6.803 5.535-12.338 12.34-12.338 6.803 0 12.338 5.535 12.338 12.338zm-8 0c0-2.393-1.945-4.338-4.338-4.338s-4.34 1.945-4.34 4.338 1.947 4.34 4.34 4.34 4.338-1.948 4.338-4.34zm-32.926 41.656c0 52.934-43.066 96-96 96s-96-43.066-96-96c0-48.867 36.713-89.296 84-95.223v-12.777h-4c-2.209 0-4-1.791-4-4v-4.682c0-8.447 6.871-15.318 15.318-15.318h9.363c8.447 0 15.318 6.871 15.318 15.318v4.682c0 2.209-1.791 4-4 4h-4v12.777c47.288 5.927 84.001 46.356 84.001 95.223zm-108-116h24v-.682c0-4.035-3.283-7.318-7.318-7.318h-9.363c-4.035 0-7.318 3.283-7.318 7.318v.682zm100 116c0-48.523-39.477-88-88-88s-88 39.477-88 88 39.477 88 88 88 88-39.477 88-88zm-8 0c0 44.111-35.889 80-80 80s-80-35.889-80-80 35.889-80 80-80 80 35.889 80 80zm-8 0c0-39.701-32.299-72-72-72s-72 32.299-72 72 32.299 72 72 72 72-32.299 72-72zm-48-8v16c0 2.209-1.791 4-4 4h-8v8c0 2.209-1.791 4-4 4h-16c-2.209 0-4-1.791-4-4v-8h-8c-2.209 0-4-1.791-4-4v-16c0-2.209 1.791-4 4-4h8v-8c0-2.209 1.791-4 4-4h16c2.209 0 4 1.791 4 4v8h8c2.209 0 4 1.791 4 4zm-24-44c2.209 0 4-1.791 4-4v-8c0-2.209-1.791-4-4-4s-4 1.791-4 4v8c0 2.209 1.791 4 4 4zm0 104c-2.209 0-4 1.791-4 4v8c0 2.209 1.791 4 4 4s4-1.791 4-4v-8c0-2.209-1.791-4-4-4zm-56-56h-8c-2.209 0-4 1.791-4 4s1.791 4 4 4h8c2.209 0 4-1.791 4-4s-1.791-4-4-4zm112 8h8c2.209 0 4-1.791 4-4s-1.791-4-4-4h-8c-2.209 0-4 1.791-4 4s1.791 4 4 4zm-13.574-52.082-5.656 5.656c-1.562 1.562-1.562 4.094 0 5.656.781.781 1.805 1.172 2.828 1.172s2.047-.391 2.828-1.172l5.656-5.656c1.562-1.562 1.562-4.094 0-5.656s-4.094-1.563-5.656 0zm-84.852 84.852-5.656 5.656c-1.562 1.562-1.562 4.094 0 5.656.781.781 1.805 1.172 2.828 1.172s2.047-.391 2.828-1.172l5.656-5.656c1.562-1.562 1.562-4.094 0-5.656s-4.093-1.563-5.656 0zm0-84.852c-1.562-1.562-4.094-1.562-5.656 0s-1.562 4.094 0 5.656l5.656 5.656c.781.781 1.805 1.172 2.828 1.172s2.047-.391 2.828-1.172c1.562-1.562 1.562-4.094 0-5.656zm84.852 84.852c-1.562-1.562-4.094-1.562-5.656 0s-1.562 4.094 0 5.656l5.656 5.656c.781.781 1.805 1.172 2.828 1.172s2.047-.391 2.828-1.172c1.562-1.562 1.562-4.094 0-5.656z" fill="url(#SVGID_1_)"/></g></svg>